<svg xmlns="http://www.w3.org/2000/svg" width="658" height="427" viewBox="0 0 658 427"><title>EarthServers Cloud</title><path fill="#49495a" d="M434 0h7v7h-7z"/><g fill="#122424"><path d="M441 0h7v7h-7zM427 14h14v7h-14zM448 14h7v7h-7zM455 21h7v7h-7zM406 28h7v7h-7zM420 28h7v7h-7zM462 28h7v7h-7zM399 35h7v7h-7zM483 35h7v7h-7zM399 42h7v7h-7zM469 49h14v7h-14zM413 56h7v7h-7zM469 56h7v7h-7zM413 63h7v14h-7zM441 70h7v7h-7zM469 70h7v7h-7zM42 77h7v7h-7zM56 77h7v7h-7zM266 77h14v7h-14zM308 77h14v7h-14zM413 77h7v7h-7zM441 77h14v7h-14zM469 77h7v7h-7zM42 84h7v7h-7zM63 84h7v7h-7zM259 84h7v7h-7zM322 84h14v7h-14zM420 84h7v7h-7zM455 84h21v7h-21zM35 91h7v7h-7zM63 91h7v7h-7zM329 91h14v7h-14zM14 98h28v7H14zM70 98h28v7H70zM245 98h7v7h-7zM336 98h7v7h-7zM98 105h7v7h-7zM238 105h7v7h-7zM343 105h42v7h-42zM567 105h21v7h-21zM0 112h14v7H0zM98 112h7v7h-7zM196 112h28v7h-28zM231 112h7v7h-7zM392 112h14v7h-14zM560 112h7v7h-7zM581 112h7v7h-7zM7 119h7v7H7zM91 119h7v7h-7zM182 119h14v7h-14zM406 119h7v7h-7zM560 119h7v7h-7zM588 119h7v7h-7zM14 126h14v7H14zM84 126h7v7h-7zM168 126h14v7h-14zM413 126h7v7h-7zM553 126h7v7h-7zM588 126h7v7h-7zM21 133h7v7h-7zM77 133h7v7h-7zM161 133h7v7h-7zM427 133h7v7h-7zM553 133h7v7h-7zM21 140h7v7h-7zM84 140h7v7h-7zM154 140h7v7h-7zM434 140h7v7h-7zM546 140h7v7h-7zM595 140h7v7h-7zM84 147h7v7h-7zM147 147h7v7h-7zM434 147h14v7h-14zM525 147h28v7h-28zM602 147h21v7h-21zM42 154h28v7H42zM84 154h7v7h-7zM140 154h7v7h-7zM441 154h7v7h-7zM497 154h21v7h-21zM637 154h7v7h-7zM21 161h21v7H21zM70 161h21v7H70zM140 161h7v7h-7zM651 161h7v7h-7zM133 168h7v7h-7zM497 168h7v7h-7zM651 168h7v7h-7zM133 175h7v7h-7zM448 175h7v7h-7zM497 175h14v7h-14zM644 175h7v7h-7zM133 182h7v7h-7zM511 182h7v7h-7zM630 182h14v7h-14zM126 189h7v7h-7zM455 189h7v7h-7zM518 189h7v7h-7zM623 189h14v7h-14zM126 196h7v7h-7zM455 196h7v7h-7zM525 196h7v7h-7zM623 196h7v7h-7zM126 203h7v7h-7zM455 203h7v7h-7zM525 203h7v7h-7zM616 203h7v7h-7zM126 210h7v7h-7zM455 210h7v7h-7zM525 210h7v7h-7zM112 217h21v7h-21zM455 217h14v7h-14zM91 224h21v7H91zM476 224h7v7h-7zM525 224h7v7h-7zM623 224h7v7h-7zM84 231h14v7H84zM483 231h14v7h-14zM567 231h7v7h-7zM623 231h7v7h-7zM77 238h7v7h-7zM497 238h7v7h-7zM518 238h7v7h-7zM560 238h7v7h-7zM581 238h7v7h-7zM623 238h7v7h-7zM70 245h7v7h-7zM504 245h7v7h-7zM518 245h7v7h-7zM546 245h7v7h-7zM595 245h14v7h-14zM623 245h7v7h-7zM63 252h7v7h-7zM511 252h7v7h-7zM525 252h21v7h-21zM609 252h14v7h-14zM63 259h7v7h-7zM511 259h7v7h-7zM56 266h7v7h-7zM518 266h7v7h-7zM56 273h7v7h-7zM518 273h7v7h-7zM49 280h7v14h-7zM525 287h7v7h-7zM49 294h7v7h-7zM525 294h7v7h-7zM49 301h7v7h-7zM525 301h7v7h-7zM49 308h7v7h-7zM525 308h7v7h-7zM49 315h7v7h-7zM525 315h7v7h-7zM49 322h7v7h-7zM525 322h7v7h-7zM49 329h7v14h-7zM56 343h7v7h-7zM518 343h7v7h-7zM56 350h7v7h-7zM63 357h7v7h-7zM511 357h7v7h-7zM504 364h7v7h-7zM70 371h7v7h-7zM497 371h14v7h-14zM77 378h14v7H77zM497 378h7v7h-7zM84 385h7v7h-7zM182 385h21v7h-21zM371 385h7v7h-7zM385 385h7v7h-7zM483 385h7v7h-7zM98 392h14v7H98zM168 392h14v7h-14zM203 392h14v7h-14zM364 392h7v7h-7zM399 392h14v7h-14zM462 392h21v7h-21zM119 399h49v7h-49zM210 399h14v7h-14zM350 399h14v7h-14zM413 399h49v7h-49zM224 406h14v7h-14zM336 406h14v7h-14zM238 413h21v7h-21zM322 413h14v7h-14zM259 420h56v7h-56z"/></g><path fill="#5c6d6d" d="M448 0h7v7h-7z"/><g fill="#001224"><path d="M434 7h7v7h-7zM287 77h14v7h-14zM315 413h7v7h-7z"/></g><g fill="#edc837"><path d="M441 7h7v7h-7zM42 91h7v7h-7zM609 154h7v7h-7zM532 203h7v7h-7zM616 231h7v7h-7zM595 238h7v7h-7z"/></g><g fill="#002424"><path d="M448 7h7v7h-7zM406 42h7v7h-7zM413 49h7v7h-7zM469 63h7v7h-7zM21 154h7v7h-7zM469 224h7v7h-7zM588 238h7v7h-7zM378 378h7v7h-7zM392 385h7v7h-7z"/></g><g fill="#ffc837"><path d="M441 14h7v7h-7zM448 21h7v14h-7zM406 35h14v7h-14zM413 42h7v7h-7zM462 42h14v7h-14zM462 49h7v7h-7zM420 63h7v7h-7zM441 63h7v7h-7zM462 63h7v7h-7zM420 70h21v7h-21zM49 77h7v7h-7zM14 105h7v7h-7zM63 105h28v7H63zM574 112h7v7h-7zM567 119h7v7h-7zM581 126h7v7h-7zM28 140h7v7h-7zM42 147h7v7h-7zM56 147h7v7h-7zM28 154h7v7h-7zM70 154h14v7H70zM637 161h14v7h-14zM630 168h14v7h-14zM630 175h7v7h-7zM518 182h7v7h-7zM623 182h7v7h-7zM616 189h7v7h-7zM609 196h7v14h-7zM574 224h7v7h-7zM602 238h7v7h-7zM616 238h7v14h-7z"/></g><g fill="#122437"><path d="M455 14h7v7h-7zM427 21h7v7h-7zM399 28h7v7h-7zM413 28h7v7h-7zM469 28h21v7h-21zM476 42h14v7h-14zM406 49h7v7h-7zM49 70h14v7H49zM294 70h7v7h-7zM280 77h7v7h-7zM301 77h7v7h-7zM427 77h14v7h-14zM455 77h7v7h-7zM252 84h7v7h-7zM413 84h7v7h-7zM245 91h14v7h-14zM7 98h7v7H7zM343 98h7v7h-7zM0 105h7v7H0zM224 112h7v7h-7zM238 112h7v7h-7zM385 112h7v7h-7zM14 119h7v7h-7zM175 119h7v7h-7zM413 119h7v7h-7zM420 126h7v7h-7zM595 133h7v7h-7zM21 147h7v7h-7zM630 154h7v7h-7zM644 154h7v7h-7zM63 161h7v7h-7zM448 161h7v14h-7zM644 168h7v7h-7zM455 182h7v7h-7zM504 182h7v7h-7zM511 189h7v7h-7zM518 196h7v7h-7zM616 196h7v7h-7zM616 210h7v7h-7zM525 217h7v7h-7zM518 231h7v7h-7zM574 231h7v7h-7zM567 238h7v7h-7zM553 245h7v7h-7zM504 252h7v7h-7zM602 252h7v7h-7zM623 252h7v7h-7zM56 259h7v7h-7zM525 280h7v7h-7zM525 329h7v7h-7zM518 336h7v7h-7zM518 350h7v7h-7zM63 364h14v7H63zM511 364h7v7h-7zM196 378h7v7h-7zM490 378h7v7h-7zM91 385h7v7h-7zM490 385h7v7h-7zM112 392h7v7h-7z"/></g><g fill="#5b6d6d"><path d="M420 21h7v7h-7zM161 126h7v7h-7zM406 399h7v7h-7z"/></g><g fill="#ffc849"><path d="M434 21h14v7h-14zM434 28h14v7h-14zM420 35h63v7h-63zM420 42h42v7h-42zM420 49h42v7h-42zM427 56h35v7h-35zM427 63h14v7h-14zM448 63h14v7h-14zM448 70h21v7h-21zM420 77h7v7h-7zM462 77h7v7h-7zM49 84h14v7H49zM49 91h14v7H49zM42 98h28v7H42zM21 105h42v7H21zM14 112h77v7H14zM21 119h63v7H21zM574 119h7v7h-7zM28 126h49v7H28zM567 126h14v7h-14zM28 133h49v7H28zM560 133h28v7h-28zM35 140h42v7H35zM560 140h35v7h-35zM28 147h14v7H28zM63 147h14v7H63zM553 147h42v7h-42zM539 154h70v7h-70zM504 161h133v7H504zM504 168h126v7H504zM511 175h119v7H511zM525 182h98v7h-98zM525 189h91v7h-91zM532 196h77v7h-77zM539 203h70v7h-70zM532 210h84v7h-84zM532 217h84v7h-84zM532 224h42v7h-42zM581 224h35v7h-35zM532 231h35v7h-35zM588 231h28v7h-28zM532 238h21v7h-21zM609 238h7v7h-7zM532 245h7v7h-7zM609 245h7v7h-7z"/></g><path fill="#5b5b6d" d="M462 21h7v7h-7z"/><path fill="#373724" d="M427 28h7v7h-7z"/><g fill="#243737"><path d="M455 28h7v7h-7zM63 77h7v7h-7zM427 84h7v7h-7zM518 147h7v7h-7zM497 161h7v7h-7zM490 168h7v7h-7zM490 238h7v7h-7z"/></g><path fill="#b6a437" d="M420 56h7v7h-7z"/><g fill="#806d37"><path d="M462 56h7v7h-7zM49 147h7v7h-7z"/></g><path fill="#253737" d="M42 70h7v7h-7z"/><path fill="#6e8080" d="M280 70h7v7h-7z"/><path fill="#122338" d="M287 70h7v7h-7z"/><g fill="#5c6e6e"><path d="M301 70h7v7h-7zM98 119h7v7h-7z"/></g><path fill="#9696a5" d="M259 77h7v7h-7z"/><g fill="#4a5b5b"><path d="M322 77h7v7h-7zM77 168h7v7h-7zM217 406h7v7h-7z"/></g><g fill="#112336"><path d="M35 84h7v7h-7zM336 413h7v7h-7z"/></g><path fill="gray" d="M266 84h7v7h-7z"/><g fill="#fff"><path d="M273 84h42v7h-42zM259 91h70v7h-70zM252 98h84v7h-84zM252 105h91v7h-91zM245 112h98v7h-98zM357 112h14v7h-14zM203 119h196v7H203zM182 126h231v7H182zM175 133h245v7H175zM168 140h259v7H168zM161 147h273v7H161zM504 147h7v7h-7zM154 154h287v7H154zM147 161h294v7H147zM147 168h301v7H147zM140 175h308v7H140zM140 182h308v7H140zM140 189h315v7H140zM133 196h315v7H133zM133 203h315v7H133zM133 210h322v7H133zM140 217h315v7H140zM119 224h343v7H119zM98 231h378v7H98zM91 238h399v7H91zM84 245h413v7H84zM77 252h427v7H77zM70 259h119v7H70zM196 259h28v7h-28zM231 259h112v7H231zM350 259h28v7h-28zM385 259h126v7H385zM63 266h126v7H63zM196 266h28v7h-28zM231 266h112v7H231zM350 266h28v7h-28zM385 266h126v7H385zM63 273h126v7H63zM196 273h28v7h-28zM231 273h112v7H231zM350 273h28v7h-28zM385 273h133v7H385zM63 280h126v7H63zM203 280h14v7h-14zM231 280h112v7H231zM357 280h14v7h-14zM385 280h133v7H385zM56 287h140v7H56zM224 287h56v7h-56zM301 287h49v7h-49zM378 287h140v7H378zM56 294h140v7H56zM224 294h49v7h-49zM308 294h49v7h-49zM378 294h147v7H378zM56 301h133v7H56zM231 301h42v7h-42zM308 301h35v7h-35zM385 301h133v7H385zM63 308h126v7H63zM231 308h42v7h-42zM315 308h28v7h-28zM392 308h126v7H392zM63 315h126v7H63zM231 315h42v7h-42zM315 315h35v7h-35zM385 315h133v7H385zM63 322h140v7H63zM217 322h56v7h-56zM308 322h49v7h-49zM378 322h133v7H378zM70 329h203v7H70zM308 329h203v7H308zM77 336h210v7H77zM301 336h203v7H301zM84 343h413v7H84zM91 350h98v7H91zM203 350h175v7H203zM385 350h105v7H385zM98 357h84v7H98zM210 357h161v7H210zM399 357h84v7h-84zM119 364h42v7h-42zM217 364h140v7H217zM413 364h49v7h-49zM224 371h126v7H224zM245 378h91v7h-91zM259 385h56v7h-56z"/></g><g fill="#c8dbdb"><path d="M315 84h7v7h-7zM56 280h7v7h-7z"/></g><g fill="#233737"><path d="M70 91h7v7h-7zM588 245h7v7h-7zM378 385h7v7h-7z"/></g><g fill="#243636"><path d="M98 98h7v7h-7zM623 147h7v7h-7zM490 161h7v7h-7zM105 217h7v7h-7zM525 336h7v7h-7z"/></g><g fill="#363648"><path d="M238 98h7v7h-7zM560 105h7v7h-7z"/></g><g fill="#494924"><path d="M7 105h7v7H7zM595 147h7v7h-7z"/></g><g fill="#edb637"><path d="M91 105h7v7h-7zM567 112h7v7h-7zM560 126h7v7h-7z"/></g><g fill="#819292"><path d="M217 105h7v7h-7zM91 392h7v7h-7z"/></g><path fill="#828282" d="M224 105h7v7h-7z"/><path fill="#96adad" d="M231 105h7v7h-7z"/><g fill="#ededed"><path d="M245 105h7v7h-7zM350 112h7v7h-7zM161 140h7v7h-7zM133 217h7v7h-7zM476 231h7v7h-7zM378 259h7v7h-7zM280 287h7v7h-7zM350 287h7v7h-7zM518 287h7v7h-7zM308 315h7v7h-7z"/></g><g fill="#6d6d80"><path d="M385 105h7v7h-7zM147 154h7v7h-7z"/></g><g fill="#dbb637"><path d="M91 112h7v7h-7zM553 140h7v7h-7z"/></g><g fill="#374949"><path d="M189 112h7v7h-7zM399 119h7v7h-7zM420 133h7v7h-7zM518 280h7v7h-7z"/></g><path fill="#a4a4b6" d="M343 112h7v7h-7z"/><g fill="#dbdbdb"><path d="M371 112h7v7h-7zM196 119h7v7h-7zM168 133h7v7h-7zM112 224h7v7h-7zM224 259h7v7h-7zM294 287h7v7h-7z"/></g><g fill="#373749"><path d="M378 112h7v7h-7zM546 133h7v7h-7z"/></g><path fill="#b0b0c4" d="M588 112h7v7h-7z"/><g fill="#c8a437"><path d="M84 119h7v7h-7zM525 238h7v7h-7z"/></g><path fill="#374848" d="M553 119h7v7h-7z"/><g fill="#5b5b37"><path d="M581 119h7v7h-7zM588 133h7v7h-7zM77 140h7v7h-7z"/></g><g fill="#b69237"><path d="M77 126h7v7h-7zM616 154h7v7h-7z"/></g><path fill="#5b6f6f" d="M91 126h7v7h-7z"/><path fill="#a6a6a6" d="M595 126h7v7h-7z"/><path fill="#384949" d="M84 133h7v7h-7z"/><path fill="#243838" d="M154 133h7v7h-7z"/><path fill="#4a5a5a" d="M147 140h7v7h-7z"/><g fill="#495b5b"><path d="M427 140h7v7h-7zM497 245h7v7h-7zM252 420h7v7h-7z"/></g><g fill="#edc849"><path d="M77 147h7v7h-7zM581 231h7v7h-7z"/></g><g fill="#edffff"><path d="M154 147h7v7h-7zM448 203h7v7h-7zM518 301h7v7h-7zM203 357h7v7h-7zM161 364h7v7h-7zM357 364h7v7h-7z"/></g><path fill="#5c5c5c" d="M511 147h7v7h-7z"/><path fill="#5c5c6d" d="M630 147h7v7h-7z"/><g fill="#122337"><path d="M14 154h7v7h-7zM315 420h7v7h-7z"/></g><g fill="#a49237"><path d="M35 154h7v7h-7zM616 224h7v7h-7z"/></g><path fill="#829696" d="M448 154h7v7h-7z"/><g fill="#242424"><path d="M518 154h7v7h-7zM553 238h7v7h-7z"/></g><path fill="#808037" d="M525 154h7v7h-7z"/><path fill="#dbc837" d="M532 154h7v7h-7z"/><path fill="#373737" d="M623 154h7v7h-7z"/><path fill="#384848" d="M651 154h7v7h-7z"/><path fill="#9292a8" d="M14 161h7v7h-7z"/><path fill="#4b5b6d" d="M42 161h7v7h-7z"/><g fill="#495c5c"><path d="M133 161h7v7h-7zM231 413h7v7h-7z"/></g><path fill="#809292" d="M441 161h7v7h-7z"/><path fill="#9cb0b0" d="M21 168h7v7h-7z"/><path fill="#5e7171" d="M28 168h7v7h-7z"/><g fill="#b6c8c8"><path d="M140 168h7v7h-7zM448 182h7v7h-7zM511 266h7v7h-7z"/></g><path fill="#b6b6b6" d="M126 175h7v7h-7z"/><g fill="#243748"><path d="M455 175h7v7h-7zM483 224h7v7h-7z"/></g><g fill="#242437"><path d="M637 175h7v7h-7zM616 217h7v7h-7z"/></g><g fill="#364949"><path d="M126 182h7v7h-7zM371 392h7v7h-7z"/></g><g fill="#ffffed"><path d="M448 196h7v7h-7zM343 301h7v7h-7zM238 378h7v7h-7z"/></g><path fill="#6e6e6e" d="M623 210h7v7h-7z"/><path fill="#485b5b" d="M469 217h7v7h-7z"/><path fill="#112436" d="M623 217h7v7h-7z"/><path fill="#a4b6b6" d="M462 224h7v7h-7z"/><path fill="#495c6e" d="M518 224h7v7h-7z"/><path fill="#728585" d="M77 231h7v7h-7z"/><path fill="#374937" d="M525 231h7v7h-7z"/><g fill="#374a4a"><path d="M70 238h7v7h-7zM56 357h7v7h-7z"/></g><path fill="#92a4a4" d="M84 238h7v7h-7z"/><path fill="#364848" d="M574 238h7v7h-7z"/><path fill="#99a" d="M63 245h7v7h-7z"/><path fill="#c8c8db" d="M77 245h7v7h-7z"/><path fill="#dbb649" d="M525 245h7v7h-7z"/><path fill="#494937" d="M539 245h7v7h-7z"/><path fill="#99c" d="M560 245h7v7h-7z"/><path fill="#48485c" d="M518 252h7v7h-7z"/><path fill="#999" d="M546 252h7v7h-7z"/><path fill="#dbc8c8" d="M189 259h7v7h-7z"/><g fill="#c8b6b6"><path d="M343 259h7v7h-7zM371 287h7v7h-7zM273 329h7v7h-7z"/></g><path fill="#4a4a5b" d="M518 259h7v7h-7z"/><g fill="#490000"><path d="M189 266h7v7h-7zM224 266h7v7h-7zM343 266h7v7h-7zM189 273h7v7h-7zM224 273h7v7h-7zM343 273h7v7h-7zM280 294h7v7h-7zM294 294h7v7h-7zM273 308h7v21h-7z"/></g><path fill="#371212" d="M378 266h7v7h-7z"/><path fill="#243648" d="M49 273h7v7h-7z"/><g fill="#491200"><path d="M378 273h7v7h-7zM350 280h7v7h-7z"/></g><path fill="#728686" d="M525 273h7v7h-7z"/><g fill="#ededdb"><path d="M189 280h7v7h-7zM196 287h7v7h-7z"/></g><g fill="#491212"><path d="M196 280h7v7h-7zM217 280h7v7h-7z"/></g><g fill="#dbdbc8"><path d="M224 280h7v7h-7zM217 287h7v7h-7z"/></g><g fill="#ffeded"><path d="M343 280h7v7h-7zM196 294h7v7h-7zM217 294h7v7h-7zM385 308h7v7h-7zM371 322h7v7h-7z"/></g><path fill="#5b2424" d="M371 280h7v7h-7z"/><path fill="#b6a4a4" d="M378 280h7v7h-7z"/><g fill="#370000"><path d="M203 287h14v7h-14zM357 287h14v7h-14zM273 301h7v7h-7zM301 301h7v7h-7zM301 322h7v7h-7zM280 329h7v7h-7zM294 329h7v7h-7z"/></g><g fill="#5b3737"><path d="M287 287h7v7h-7zM301 294h7v7h-7z"/></g><g fill="#ffdbdb"><path d="M203 294h14v7h-14zM357 294h7v7h-7zM371 294h7v7h-7zM189 301h42v7h-42zM350 301h35v7h-35zM189 308h42v7h-42zM343 308h42v7h-42zM189 315h35v7h-35zM350 315h35v7h-35zM203 322h14v7h-14zM364 322h7v7h-7z"/></g><path fill="#806d6d" d="M273 294h7v7h-7z"/><g fill="#801200"><path d="M287 294h7v7h-7zM280 301h21v7h-21zM280 308h21v7h-21zM280 315h21v7h-21zM280 322h21v7h-21z"/></g><path fill="#ffdbc8" d="M364 294h7v7h-7z"/><g fill="#dbedff"><path d="M56 308h7v7h-7zM77 343h7v7h-7z"/></g><g fill="#6d1200"><path d="M301 308h7v7h-7zM287 329h7v7h-7z"/></g><g fill="#eddbdb"><path d="M308 308h7v7h-7zM224 315h7v7h-7z"/></g><g fill="#6dc8ff"><path d="M518 308h7v7h-7zM56 322h7v7h-7zM518 322h7v7h-7zM63 329h7v14h-7zM504 336h14v7h-14zM70 343h7v7h-7zM504 343h14v7h-14zM70 350h14v7H70zM490 350h21v7h-21zM70 357h21v7H70zM182 357h7v7h-7zM371 357h7v7h-7zM385 357h7v7h-7zM483 357h7v7h-7zM497 357h7v7h-7zM77 364h14v7H77zM98 364h7v7h-7zM168 364h42v7h-42zM364 364h42v7h-42zM469 364h35v7h-35zM84 371h140v7H84zM357 371h140v7H357zM91 378h98v7H91zM210 378h28v7h-28zM343 378h28v7h-28zM392 378h98v7h-98zM105 385h70v7h-70zM210 385h42v7h-42zM329 385h35v7h-35zM399 385h77v7h-77zM126 392h28v7h-28zM224 392h56v7h-56zM287 392h70v7h-70zM420 392h35v7h-35zM231 399h119v7H231zM245 406h84v7h-84zM280 413h21v7h-21z"/></g><g fill="#5bc8ff"><path d="M56 315h7v7h-7zM518 315h7v7h-7zM56 329h7v7h-7zM511 329h7v7h-7zM63 343h7v7h-7zM378 350h7v7h-7zM91 357h7v7h-7zM189 357h14v7h-14zM378 357h7v7h-7zM490 357h7v7h-7zM504 357h7v7h-7zM91 364h7v7h-7zM105 364h7v7h-7zM203 378h7v7h-7zM322 385h7v7h-7zM217 392h7v7h-7zM280 392h7v7h-7z"/></g><path fill="#5b1200" d="M301 315h7v7h-7z"/><path fill="#ffeddb" d="M357 322h7v7h-7z"/><g fill="#c8edff"><path d="M511 322h7v7h-7zM196 350h7v7h-7zM462 364h7v7h-7zM336 378h7v7h-7zM315 385h7v7h-7z"/></g><path fill="#926d6d" d="M301 329h7v7h-7z"/><g fill="#5ba4c8"><path d="M518 329h7v7h-7zM455 392h7v7h-7z"/></g><g fill="#4980a4"><path d="M56 336h7v7h-7zM308 413h7v7h-7z"/></g><g fill="#a4dbff"><path d="M70 336h7v7h-7zM392 357h7v7h-7zM252 385h7v7h-7z"/></g><path fill="#a49292" d="M287 336h7v7h-7z"/><path fill="#edffed" d="M294 336h7v7h-7z"/><path fill="#485c5c" d="M49 343h7v7h-7z"/><path fill="#92c8ff" d="M497 343h7v7h-7z"/><g fill="#5bb6ed"><path d="M63 350h7v7h-7zM364 385h7v7h-7zM119 392h7v7h-7zM266 413h7v7h-7z"/></g><g fill="#b6dbff"><path d="M84 350h7v7h-7zM210 364h7v7h-7z"/></g><g fill="#ededff"><path d="M189 350h7v7h-7zM112 364h7v7h-7z"/></g><g fill="#24496d"><path d="M511 350h7v7h-7zM476 385h7v7h-7zM259 413h7v7h-7z"/></g><path fill="#a9a9a9" d="M518 357h7v7h-7z"/><path fill="#80c8ff" d="M406 364h7v7h-7z"/><g fill="#123749"><path d="M77 371h7v7h-7zM189 378h7v7h-7zM203 385h7v7h-7zM161 392h7v7h-7z"/></g><path fill="#92dbff" d="M350 371h7v7h-7z"/><g fill="#5bb6db"><path d="M371 378h7v7h-7zM175 385h7v7h-7zM224 399h7v7h-7z"/></g><g fill="#4992b6"><path d="M385 378h7v7h-7zM98 385h7v7h-7z"/></g><path fill="#6dc8ed" d="M154 392h7v7h-7z"/><path fill="#49495c" d="M182 392h7v7h-7z"/><path fill="#376d92" d="M357 392h7v7h-7z"/><path fill="#132537" d="M392 392h7v7h-7z"/><path fill="#245b80" d="M413 392h7v7h-7z"/><path fill="#bfbfbf" d="M483 392h7v7h-7z"/><path fill="#9aa" d="M105 399h7v7h-7z"/><g fill="#122336"><path d="M112 399h7v7h-7zM350 406h7v7h-7z"/></g><path fill="#9292a5" d="M168 399h7v7h-7z"/><path fill="#93aeae" d="M364 399h7v7h-7z"/><path fill="#122436" d="M462 399h7v7h-7z"/><path fill="#49a4c8" d="M238 406h7v7h-7z"/><g fill="#5bc8ed"><path d="M329 406h7v7h-7zM273 413h7v7h-7z"/></g><path fill="#6db6ed" d="M301 413h7v7h-7z"/><path fill="#9cc" d="M322 420h7v7h-7z"/></svg>