<?xml version="1.0" encoding="UTF-8" standalone="no"?>
<svg
   width="282"
   height="123"
   viewBox="0 0 282 123"
   version="1.1"
   id="svg56"
   sodipodi:docname="Eagle-Silhouette.svg"
   inkscape:version="1.4.2 (ebf0e940d0, 2025-05-08)"
   xmlns:inkscape="http://www.inkscape.org/namespaces/inkscape"
   xmlns:sodipodi="http://sodipodi.sourceforge.net/DTD/sodipodi-0.dtd"
   xmlns="http://www.w3.org/2000/svg"
   xmlns:svg="http://www.w3.org/2000/svg"
   xmlns:rdf="http://www.w3.org/1999/02/22-rdf-syntax-ns#"
   xmlns:dc="http://purl.org/dc/elements/1.1/">
  <defs
     id="defs56" />
  <sodipodi:namedview
     id="namedview56"
     pagecolor="#ffffff"
     bordercolor="#000000"
     borderopacity="0.25"
     inkscape:showpageshadow="2"
     inkscape:pageopacity="0.0"
     inkscape:pagecheckerboard="0"
     inkscape:deskcolor="#d1d1d1"
     inkscape:zoom="4.1153615"
     inkscape:cx="171.55237"
     inkscape:cy="99.26224"
     inkscape:window-width="2560"
     inkscape:window-height="1372"
     inkscape:window-x="0"
     inkscape:window-y="0"
     inkscape:window-maximized="1"
     inkscape:current-layer="svg56" />
  <metadata
     id="metadata1">
    <rdf:RDF>
      <rdf:Description>
        <dc:title>Pixel Art SVG</dc:title>
        <dc:creator>ImageToSVGPixelArt</dc:creator>
        <dc:description>Generated pixel art in SVG format</dc:description>
      </rdf:Description>
    </rdf:RDF>
  </metadata>
  <g
     fill="#000000"
     id="g56"
     transform="translate(-9,-12)">
    <rect
       x="156"
       y="12"
       width="6"
       height="3"
       id="rect1" />
    <rect
       x="153"
       y="15"
       width="9"
       height="3"
       id="rect2" />
    <rect
       x="150"
       y="18"
       width="9"
       height="3"
       id="rect3" />
    <rect
       x="150"
       y="21"
       width="9"
       height="3"
       id="rect4" />
    <rect
       x="147"
       y="24"
       width="15"
       height="3"
       id="rect5" />
    <rect
       x="144"
       y="27"
       width="18"
       height="3"
       id="rect6" />
    <rect
       x="18"
       y="30"
       width="9"
       height="3"
       id="rect7" />
    <rect
       x="144"
       y="30"
       width="18"
       height="3"
       id="rect8" />
    <rect
       x="18"
       y="33"
       width="18"
       height="3"
       id="rect9" />
    <rect
       x="144"
       y="33"
       width="18"
       height="3"
       id="rect10" />
    <rect
       x="12"
       y="36"
       width="33"
       height="3"
       id="rect11" />
    <rect
       x="141"
       y="36"
       width="24"
       height="3"
       id="rect12" />
    <rect
       x="267"
       y="36"
       width="15"
       height="3"
       id="rect13" />
    <rect
       x="15"
       y="39"
       width="72"
       height="3"
       id="rect14" />
    <rect
       x="141"
       y="39"
       width="27"
       height="3"
       id="rect15" />
    <rect
       x="246"
       y="39"
       width="33"
       height="3"
       id="rect16" />
    <rect
       x="21"
       y="42"
       width="90"
       height="3"
       id="rect17" />
    <rect
       x="138"
       y="42"
       width="30"
       height="3"
       id="rect18" />
    <rect
       x="204"
       y="42"
       width="81"
       height="3"
       id="rect19" />
    <rect
       x="12"
       y="45"
       width="273"
       height="3"
       id="rect20" />
    <rect
       x="9"
       y="48"
       width="279"
       height="3"
       id="rect21" />
    <rect
       x="27"
       y="51"
       width="261"
       height="3"
       id="rect22" />
    <rect
       x="15"
       y="54"
       width="258"
       height="3"
       id="rect23" />
    <rect
       x="12"
       y="57"
       width="273"
       height="3"
       id="rect24" />
    <rect
       x="18"
       y="60"
       width="273"
       height="3"
       id="rect25" />
    <rect
       x="12"
       y="63"
       width="267"
       height="3"
       id="rect26" />
    <rect
       x="27"
       y="66"
       width="258"
       height="3"
       id="rect27" />
    <rect
       x="21"
       y="69"
       width="264"
       height="3"
       id="rect28" />
    <rect
       x="21"
       y="72"
       width="258"
       height="3"
       id="rect29" />
    <rect
       x="30"
       y="75"
       width="252"
       height="3"
       id="rect30" />
    <rect
       x="39"
       y="78"
       width="237"
       height="3"
       id="rect31" />
    <rect
       x="45"
       y="81"
       width="222"
       height="3"
       id="rect32" />
    <rect
       x="270"
       y="81"
       width="3"
       height="3"
       id="rect33" />
    <rect
       x="51"
       y="84"
       width="216"
       height="3"
       id="rect34" />
    <rect
       x="60"
       y="87"
       width="201"
       height="3"
       id="rect35" />
    <rect
       x="66"
       y="90"
       width="186"
       height="3"
       id="rect36" />
    <rect
       x="72"
       y="93"
       width="3"
       height="3"
       id="rect37" />
    <rect
       x="78"
       y="93"
       width="165"
       height="3"
       id="rect38" />
    <rect
       x="84"
       y="96"
       width="150"
       height="3"
       id="rect39" />
    <rect
       x="93"
       y="99"
       width="117"
       height="3"
       id="rect40" />
    <rect
       x="213"
       y="99"
       width="12"
       height="3"
       id="rect41" />
    <rect
       x="120"
       y="102"
       width="60"
       height="3"
       id="rect42" />
    <rect
       x="117"
       y="105"
       width="66"
       height="3"
       id="rect43" />
    <rect
       x="117"
       y="108"
       width="69"
       height="3"
       id="rect44" />
    <rect
       x="117"
       y="111"
       width="69"
       height="3"
       id="rect45" />
    <rect
       x="120"
       y="114"
       width="66"
       height="3"
       id="rect46" />
    <rect
       x="120"
       y="117"
       width="63"
       height="3"
       id="rect47" />
    <rect
       x="123"
       y="120"
       width="60"
       height="3"
       id="rect48" />
    <rect
       x="129"
       y="123"
       width="48"
       height="3"
       id="rect49" />
    <rect
       x="129"
       y="126"
       width="39"
       height="3"
       id="rect50" />
    <rect
       x="171"
       y="126"
       width="6"
       height="3"
       id="rect51" />
    <rect
       x="138"
       y="129"
       width="24"
       height="3"
       id="rect52" />
    <rect
       x="165"
       y="129"
       width="6"
       height="3"
       id="rect53" />
    <rect
       x="147"
       y="132"
       width="6"
       height="3"
       id="rect54" />
    <rect
       x="159"
       y="132"
       width="3"
       height="3"
       id="rect55" />
  </g>
  <path
     style="fill:#ffffff;fill-rule:evenodd;stroke:#ff3600;stroke-width:0"
     d="m 135.03352,19.497841 v -1.457952 h 8.96033 8.96033 v 1.457952 1.457952 h -8.96033 -8.96033 z"
     id="path1" />
  <path
     style="fill:#ffffff;fill-rule:evenodd;stroke:#ff3600;stroke-width:0"
     d="m 135.03352,22.504867 v -1.488326 h 8.96033 8.96033 v 1.488326 1.488326 h -8.96033 -8.96033 z"
     id="path2" />
  <path
     style="fill:#ffffff;fill-rule:evenodd;stroke:#ff3600;stroke-width:0"
     d="m 132.05687,25.511893 v -1.457952 h 11.96736 11.96735 v 1.457952 1.457952 h -11.96735 -11.96736 z"
     id="path3" />
  <path
     style="fill:#ffffff;fill-rule:evenodd;stroke:#ff3600;stroke-width:0"
     d="m 129.01947,31.495572 v -1.488326 h 14.97438 14.97438 v 1.488326 1.488326 h -14.97438 -14.97438 z"
     id="path4" />
  <path
     style="fill:#ffffff;fill-rule:evenodd;stroke:#ff3600;stroke-width:0"
     d="m 132.05687,28.488546 v -1.457953 h 13.45568 13.45568 v 1.457953 1.457952 h -13.45568 -13.45568 z"
     id="path5" />
  <path
     style="fill:#ffffff;fill-rule:evenodd;stroke:#ff3600;stroke-width:0"
     d="m 135.03352,16.490814 v -1.488326 h 8.96033 8.96033 v 1.488326 1.488327 h -8.96033 -8.96033 z"
     id="path6" />
  <path
     style="fill:#ffffff;fill-rule:evenodd;stroke:#ff3600;stroke-width:0"
     d="m 138.01017,13.483788 v -1.457952 h 7.47201 7.472 v 1.457952 1.457952 h -7.472 -7.47201 z"
     id="path7" />
  <path
     style="fill:#ffcc00;fill-rule:evenodd;stroke:#ff3600;stroke-width:0"
     d="M 141.04757,10.507136 V 9.049184 h 4.46498 4.46498 v 1.457952 1.457952 h -4.46498 -4.46498 z"
     id="path8" />
  <path
     style="fill:#ffcc00;fill-rule:evenodd;stroke:#ff3600;stroke-width:0"
     d="M 141.04757,7.50011 V 6.011784 h 4.46498 4.46498 V 7.50011 8.988436 h -4.46498 -4.46498 z"
     id="path9" />
  <path
     style="fill:#ffcc00;fill-rule:evenodd;stroke:#ff3600;stroke-width:0"
     d="M 144.02423,4.493083 V 3.035131 h 4.46497 4.46498 v 1.457952 1.457953 h -4.46498 -4.46497 z"
     id="path10" />
  <path
     style="fill:#d4aa00;fill-rule:evenodd;stroke:#ff3600;stroke-width:0"
     d="M 147.00088,1.516431 V 0.058479 h 2.97665 2.97665 v 1.457952 1.457952 h -2.97665 -2.97665 z"
     id="path11" />
  <path
     style="fill:#ffffff;fill-rule:evenodd;stroke:#ff3600;stroke-width:0"
     d="M 141.04757,10.507136 V 9.049184 h 4.46498 4.46498 v 1.457952 1.457952 h -4.46498 -4.46498 z"
     id="path12" />
</svg>
