<svg xmlns="http://www.w3.org/2000/svg" width="195.048" height="84" viewBox="0 0 195.048 84"><g fill="#d6d6d6"><path d="M93.007 0h12v3h-12zM51.007 24h3v3h-3zM60.007 24h3v3h-3zM153.007 30h3v3h-3zM156.007 36h3v3h-3zM162.007 42h3v3h-3zM138.007 45h3v3h-3zM192.007 72h3v3h-3z"/></g><path fill="#989f9f" d="M90.007 3h3v3h-3z"/><g fill="#1c1c22"><path d="M93.007 3h3v3h-3zM99.007 3h3v3h-3zM69.007 27h3v3h-3zM171.007 54h3v3h-3zM9.007 78h6v3h-6zM21.007 78h3v3h-3zM27.007 78h6v3h-6zM39.007 78h6v3h-6zM51.007 78h3v3h-3zM60.007 78h3v3h-3zM69.007 78h6v3h-6zM81.007 78h3v3h-3zM93.007 78h3v3h-3zM153.007 78h3v3h-3zM171.007 78h3v3h-3z"/></g><g fill="#151c1c"><path d="M96.007 3h3v3h-3zM153.007 36h3v3h-3z"/></g><g fill="#151515"><path d="M102.007 3h3v3h-3zM117.007 24h3v3h-3z"/></g><path fill="#222929" d="M90.007 6h3v3h-3z"/><g fill="#b3b3ac"><path d="M93.007 6h3v3h-3zM57.007 30h3v3h-3z"/></g><g fill="#eaeadd"><path d="M96.007 6h3v6h-3zM93.007 12h6v3h-6zM102.007 15h3v3h-3zM99.007 18h3v3h-3zM93.007 21h6v3h-6zM96.007 30h3v3h-3zM57.007 33h3v3h-3zM114.007 33h3v3h-3zM141.007 33h3v3h-3zM57.007 36h6v3h-6zM54.007 39h3v3h-3zM63.007 39h3v3h-3zM120.007 39h3v3h-3zM51.007 42h6v3h-6zM60.007 42h6v3h-6zM114.007 42h3v3h-3zM57.007 45h6v3h-6zM69.007 45h3v3h-3zM108.007 45h6v3h-6zM54.007 48h6v3h-6zM66.007 48h3v3h-3zM81.007 48h3v3h-3zM117.007 48h3v3h-3zM63.007 51h3v3h-3zM81.007 51h6v3h-6zM69.007 54h6v3h-6zM81.007 54h3v3h-3zM90.007 54h3v3h-3zM123.007 54h3v3h-3zM66.007 57h6v3h-6zM75.007 57h6v3h-6zM87.007 57h3v3h-3zM120.007 57h3v3h-3zM129.007 57h3v3h-3zM63.007 60h6v3h-6zM75.007 60h3v3h-3zM84.007 60h6v3h-6zM165.007 60h3v3h-3zM72.007 63h3v3h-3zM81.007 63h3v3h-3zM93.007 63h3v3h-3zM132.007 63h6v3h-6zM144.007 63h3v3h-3zM78.007 66h3v3h-3zM90.007 66h3v3h-3zM102.007 66h3v3h-3zM111.007 66h3v3h-3zM132.007 66h3v3h-3zM150.007 66h3v3h-3zM171.007 66h3v3h-3zM63.007 69h6v3h-6zM84.007 69h6v3h-6zM96.007 69h3v3h-3zM105.007 69h6v3h-6zM117.007 69h3v3h-3zM126.007 69h6v3h-6zM138.007 69h3v3h-3zM84.007 72h3v3h-3zM102.007 72h6v3h-6zM114.007 72h3v3h-3zM123.007 72h6v3h-6zM135.007 72h3v3h-3zM144.007 72h3v3h-3zM183.007 72h3v3h-3zM138.007 75h3v3h-3zM147.007 75h3v3h-3zM156.007 75h3v3h-3z"/></g><g fill="#222922"><path d="M99.007 6h3v3h-3zM183.007 69h3v3h-3z"/></g><g fill="#292930"><path d="M102.007 6h3v3h-3zM45.007 30h3v3h-3zM42.007 33h3v3h-3zM24.007 51h3v3h-3zM9.007 66h3v3h-3z"/></g><g fill="#303029"><path d="M105.007 6h3v3h-3zM174.007 60h3v3h-3z"/></g><g fill="#cfcfc8"><path d="M108.007 6h3v3h-3zM142.811 20.934a2 2 0 0 1-.146.002h-1.658V21h3v-.064h-1.125zM147.007 33h3v3h-3zM195.007 78v3h.011v-.152q-.001-.075.006-.149l.006-.13.002-.106v-.201q.002-.053.008-.106.004-.047.006-.096l.002-.105v-.985q-.004-.067-.004-.136v-.301q-.001-.015-.004-.03-.005-.049-.006-.099-.002-.048-.004-.096V78Z"/></g><path fill="#c1c1c8" d="M84.007 9h3v3h-3z"/><g fill="#222930"><path d="M87.007 9h3v3h-3zM3.007 75h3v3h-3z"/></g><path fill="#5a5a5a" d="M90.007 9h3v3h-3z"/><g fill="#e3eadd"><path d="M93.007 9h3v3h-3zM99.007 15h3v3h-3zM105.007 18h3v6h-3zM96.007 24h3v3h-3zM99.007 27h3v3h-3zM54.007 30h3v3h-3zM93.007 30h3v3h-3zM51.007 33h3v3h-3zM63.007 36h3v3h-3zM48.007 39h3v3h-3zM105.007 39h3v3h-3zM48.007 42h3v3h-3zM135.007 45h3v3h-3zM63.007 48h3v3h-3zM66.007 51h3v3h-3zM78.007 51h3v3h-3zM138.007 51h3v3h-3zM132.007 54h3v3h-3zM144.007 57h3v3h-3zM93.007 60h3v3h-3zM126.007 60h3v3h-3zM138.007 60h3v3h-3zM150.007 63h3v3h-3zM87.007 66h3v3h-3zM108.007 66h3v3h-3zM129.007 66h3v3h-3zM141.007 66h3v3h-3zM93.007 69h3v3h-3zM147.007 69h3v3h-3zM156.007 69h3v3h-3zM72.007 72h3v3h-3zM96.007 72h3v3h-3zM147.007 72h3v3h-3zM96.007 75h3v3h-3zM105.007 75h3v3h-3zM117.007 75h3v3h-3zM126.007 75h3v3h-3z"/></g><g fill="#eaeae3"><path d="M99.007 9h3v3h-3zM69.007 72h3v3h-3zM114.007 75h3v3h-3zM165.007 75h3v3h-3zM174.007 75h3v3h-3zM183.007 75h3v3h-3z"/></g><path fill="#1c2929" d="M105.007 9h3v3h-3z"/><g fill="#6e6e75"><path d="M108.007 9h3v6h-3zM120.007 30h3v3h-3zM.007 81h3v3h-3zM66.007 81h3v3h-3z"/></g><g fill="#d6cfd6"><path d="M81.007 12h3v3h-3zM24.007 45h3v3h-3z"/></g><g fill="#221c22"><path d="M84.007 12h3v3h-3zM48.007 27h3v3h-3zM84.007 78h3v3h-3zM105.007 78h3v3h-3zM126.007 78h3v3h-3zM147.007 78h3v3h-3zM180.007 78h3v3h-3zM189.007 78h3v3h-3z"/></g><path fill="#1c2230" d="M87.007 12h3v3h-3z"/><path fill="#606e7c" d="M90.007 12h3v3h-3z"/><g fill="#e3e3d6"><path d="M99.007 12h3v3h-3zM93.007 18h6v3h-6zM102.007 21h3v3h-3zM93.007 27h3v3h-3zM54.007 33h3v3h-3zM111.007 33h3v3h-3zM54.007 36h3v3h-3zM57.007 39h6v3h-6zM57.007 42h3v3h-3zM66.007 42h3v3h-3zM54.007 45h3v3h-3zM63.007 45h3v3h-3zM114.007 45h3v3h-3zM60.007 48h3v3h-3zM69.007 51h3v3h-3zM87.007 51h3v3h-3zM66.007 54h3v3h-3zM87.007 54h3v3h-3zM117.007 54h3v3h-3zM159.007 54h3v3h-3zM63.007 57h3v3h-3zM72.007 57h3v3h-3zM81.007 57h3v3h-3zM123.007 57h3v3h-3zM60.007 60h3v3h-3zM69.007 60h6v3h-6zM81.007 60h3v3h-3zM90.007 60h3v3h-3zM66.007 63h3v3h-3zM75.007 63h3v3h-3zM87.007 63h3v3h-3zM123.007 63h3v3h-3zM129.007 63h3v3h-3zM138.007 63h3v3h-3zM63.007 66h3v3h-3zM84.007 66h3v3h-3zM96.007 66h3v3h-3zM105.007 66h3v3h-3zM69.007 69h3v3h-3zM81.007 69h3v3h-3zM90.007 69h3v3h-3zM102.007 69h3v3h-3zM111.007 69h3v3h-3zM132.007 69h3v3h-3zM144.007 69h3v3h-3zM180.007 69h3v3h-3zM87.007 72h3v3h-3zM99.007 72h3v3h-3zM108.007 72h3v3h-3zM120.007 72h3v3h-3zM129.007 72h3v3h-3zM150.007 72h3v3h-3z"/></g><path fill="#f1f1dd" d="M102.007 12h3v3h-3z"/><path fill="#5a5a67" d="M105.007 12h3v3h-3z"/><path fill="#4c454c" d="M81.007 15h3v3h-3z"/><g fill="#1c1c29"><path d="M84.007 15h3v3h-3zM75.007 21h3v3h-3zM66.007 30h3v3h-3zM150.007 33h3v3h-3zM36.007 39h3v3h-3zM30.007 45h3v3h-3zM18.007 57h3v3h-3zM3.007 72h3v3h-3zM3.007 78h3v3h-3zM18.007 78h3v3h-3zM48.007 78h3v3h-3zM90.007 78h3v3h-3zM156.007 78h3v3h-3zM174.007 78h3v3h-3zM183.007 78h3v3h-3z"/></g><g fill="#1c3045"><path d="M87.007 15h3v3h-3zM69.007 39h3v3h-3zM99.007 39h3v3h-3z"/></g><g fill="#5a7583"><path d="M90.007 15h3v3h-3zM90.007 27h3v3h-3z"/></g><g fill="#eaead6"><path d="M93.007 15h3v3h-3zM114.007 30h3v3h-3zM141.007 30h3v3h-3zM144.007 33h3v3h-3zM111.007 36h3v3h-3zM120.007 36h3v3h-3zM147.007 36h3v3h-3zM111.007 39h6v3h-6zM123.007 39h3v3h-3zM105.007 42h3v3h-3zM117.007 42h3v3h-3zM123.007 42h6v3h-6zM117.007 45h3v3h-3zM126.007 45h6v3h-6zM87.007 48h3v3h-3zM120.007 48h3v3h-3zM129.007 48h6v3h-6zM72.007 51h3v3h-3zM120.007 51h6v3h-6zM132.007 51h3v3h-3zM126.007 54h3v3h-3zM135.007 54h3v3h-3zM126.007 57h3v3h-3zM138.007 57h3v3h-3zM129.007 60h3v3h-3zM141.007 60h3v3h-3zM60.007 63h6v3h-6zM90.007 63h3v3h-3zM81.007 66h3v3h-3zM159.007 66h3v3h-3zM168.007 66h3v3h-3zM153.007 69h3v3h-3zM171.007 69h3v3h-3zM156.007 72h3v3h-3zM165.007 72h3v3h-3zM174.007 72h3v3h-3z"/></g><g fill="#eae3d6"><path d="M96.007 15h3v3h-3zM99.007 21h3v3h-3zM93.007 24h3v3h-3zM96.007 27h3v3h-3zM66.007 45h3v3h-3zM69.007 48h3v3h-3zM111.007 48h3v3h-3zM60.007 51h3v3h-3zM63.007 54h3v3h-3zM120.007 60h3v3h-3zM132.007 60h3v3h-3zM147.007 63h3v3h-3zM93.007 66h3v3h-3zM114.007 66h3v3h-3zM135.007 66h3v3h-3zM147.007 66h3v3h-3zM99.007 69h3v3h-3zM90.007 72h3v3h-3zM141.007 72h3v3h-3z"/></g><path fill="#c8c8c1" d="M105.007 15h3v3h-3z"/><path fill="#303730" d="M108.007 15h3v3h-3z"/><g fill="#b3baba"><path d="M111.007 15v3h3v-.953l-.004-.04v-.087l-.002-.012v-.568q0-.015.002-.028 0-.012.002-.025v-.154l-.002-.024-.002-.029v-.107l.002-.024v-.031q0-.022.002-.045 0-.01.002-.02V15ZM123.007 27h3v3h-3z"/></g><g fill="#cfc8cf"><path d="M114.007 15v.854l.002-.032v-.047l.002-.002v-.014l.002-.002h.002v-.006l.002-.002h.002v-.013q0-.013-.002-.026l-.002-.027v-.217l-.004-.023V15Zm0 2.057V18h.008v-.395l-.002-.029v-.172q0-.013-.002-.025l-.002-.035v-.286zM183.007 63h3v3h-3z"/></g><g fill="#6e6e6e"><path d="M75.007 18h3v3h-3zM150.007 30h3v3h-3zM6.007 81h3v3h-3zM27.007 81h3v3h-3zM36.007 81h3v3h-3zM78.007 81h3v3h-3zM87.007 81h3v3h-3zM120.007 81h3v3h-3zM129.007 81h3v3h-3z"/></g><g fill="#222229"><path d="M78.007 18h3v3h-3zM6.007 78h3v3h-3zM15.007 78h3v3h-3zM24.007 78h3v3h-3zM33.007 78h6v3h-6zM45.007 78h3v3h-3zM66.007 78h3v3h-3zM87.007 78h3v3h-3zM96.007 78h3v3h-3zM159.007 78h3v3h-3zM168.007 78h3v3h-3z"/></g><g fill="#151c22"><path d="M81.007 18h3v3h-3zM78.007 21h3v3h-3zM114.007 24h3v3h-3zM141.007 24h3v3h-3z"/></g><path fill="#223753" d="M84.007 18h3v3h-3z"/><g fill="#29455a"><path d="M87.007 18h3v3h-3zM78.007 27h3v3h-3zM72.007 30h3v3h-3zM135.007 30h3v3h-3zM78.007 33h3v3h-3zM132.007 36h3v3h-3zM42.007 39h3v3h-3zM72.007 39h3v3h-3zM42.007 42h3v3h-3zM81.007 42h3v3h-3zM36.007 45h3v3h-3zM33.007 48h3v3h-3zM99.007 48h3v3h-3zM30.007 51h3v3h-3zM102.007 51h3v3h-3zM27.007 57h3v3h-3zM108.007 57h3v3h-3zM21.007 60h3v6h-3zM15.007 66h3v3h-3zM39.007 66h3v3h-3zM9.007 72h3v3h-3zM33.007 72h3v3h-3zM39.007 72h3v3h-3zM9.007 75h3v3h-3zM18.007 75h3v3h-3z"/></g><g fill="#607583"><path d="M90.007 18h3v3h-3zM39.007 60h3v3h-3zM51.007 63h3v3h-3z"/></g><g fill="#e3e3dd"><path d="M102.007 18h3v3h-3zM114.007 36h6v3h-6zM123.007 36h3v3h-3zM144.007 36h3v3h-3zM108.007 39h3v3h-3zM117.007 39h3v3h-3zM126.007 39h3v3h-3zM111.007 42h3v3h-3zM120.007 42h3v3h-3zM129.007 42h6v3h-6zM120.007 45h6v3h-6zM114.007 48h3v3h-3zM123.007 48h6v3h-6zM135.007 48h3v3h-3zM117.007 51h3v3h-3zM126.007 51h6v3h-6zM120.007 54h3v3h-3zM129.007 54h3v3h-3zM141.007 54h3v3h-3zM132.007 57h3v3h-3zM123.007 60h3v3h-3zM135.007 60h3v3h-3zM96.007 63h3v3h-3zM156.007 63h3v3h-3zM165.007 63h3v3h-3zM171.007 63h3v3h-3zM66.007 66h3v3h-3zM156.007 66h3v3h-3zM174.007 66h3v3h-3zM78.007 69h3v3h-3zM177.007 69h3v3h-3zM159.007 72h3v3h-3zM168.007 72h6v3h-6zM180.007 72h3v3h-3z"/></g><g fill="#75757c"><path d="M108.007 18h3v3h-3zM126.007 30h3v3h-3zM3.007 81h3v3h-3zM96.007 81h3v3h-3z"/></g><path fill="#a5a5ac" d="M111.007 18v3h3v-.072l-.002-.014q0-.033.002-.066v-.686l-.004-.053v-1.941q0-.035.004-.07V18Z"/><g fill="#d6d6cf"><path d="M114.007 18v.098a1 1 0 0 1 .008-.094V18Zm0 2.182v.666l.006-.059v-.082q0-.017.002-.033l.002-.03v-.226l-.004-.061-.004-.023v-.127l.002-.002v-.008l-.002-.002v-.014zm.138.338v.072l.002-.002.002-.002v-.002l.002-.002v-.002l.002-.002v-.002zm-.138.408V21h.01v-.02h-.002l-.002-.002v-.002h-.002v-.006l-.002-.017v-.002c0-.002 0-.01.002-.014v-.002l-.002-.002v-.004zM60.007 33h3v3h-3zM72.007 48h3v3h-3zM186.007 66h3v3h-3zM189.007 69h3v3h-3z"/></g><g fill="#c8c8d6"><path d="M140.996 21.011h3v3h-3zM152.996 33.011h3v3h-3z"/></g><path fill="#b3acb3" d="M72.007 21h3v3h-3z"/><g fill="#303e5a"><path d="M81.007 21h3v3h-3zM96.007 51h3v3h-3z"/></g><g fill="#294560"><path d="M84.007 21h3v3h-3zM75.007 27h3v3h-3zM87.007 27h3v3h-3zM84.007 30h3v3h-3zM69.007 33h6v3h-6zM81.007 33h3v3h-3zM78.007 36h3v3h-3zM75.007 39h3v3h-3zM84.007 39h3v3h-3zM39.007 45h3v3h-3zM99.007 45h3v3h-3zM36.007 48h3v3h-3zM96.007 48h3v3h-3zM33.007 51h3v3h-3zM30.007 54h3v3h-3zM39.007 54h3v3h-3zM102.007 54h3v3h-3zM36.007 57h3v3h-3zM24.007 60h3v3h-3zM33.007 60h3v3h-3zM30.007 63h3v3h-3zM18.007 66h3v3h-3zM27.007 66h3v3h-3zM36.007 66h3v3h-3zM45.007 66h3v3h-3zM15.007 69h3v3h-3zM24.007 69h3v3h-3zM33.007 69h6v3h-6zM12.007 72h3v3h-3zM21.007 72h3v3h-3zM30.007 72h3v3h-3z"/></g><path fill="#1c3e5a" d="M87.007 21h3v3h-3z"/><g fill="#5a6e7c"><path d="M90.007 21h3v3h-3zM90.007 33h3v6h-3z"/></g><path fill="#7c837c" d="M108.007 21h3v3h-3z"/><path fill="#15151c" d="M111.007 21h3v3h-3z"/><g fill="#1c2229"><path d="M72.007 24h3v3h-3zM57.007 78h3v3h-3zM78.007 78h3v3h-3zM186.007 78h3v3h-3z"/></g><path fill="#223045" d="M75.007 24h3v3h-3z"/><g fill="#293e5a"><path d="M78.007 24h3v3h-3zM84.007 27h3v3h-3zM69.007 36h3v3h-3zM87.007 39h3v3h-3zM75.007 42h3v3h-3zM39.007 51h3v3h-3zM105.007 54h3v3h-3zM24.007 57h3v3h-3zM36.007 60h3v3h-3zM18.007 63h3v3h-3zM30.007 66h3v3h-3zM24.007 72h3v3h-3zM15.007 75h3v3h-3zM24.007 75h3v3h-3zM36.007 75h3v3h-3z"/></g><g fill="#294567"><path d="M81.007 24h3v3h-3zM87.007 36h3v3h-3z"/></g><g fill="#223e5a"><path d="M84.007 24h3v3h-3zM81.007 27h3v3h-3zM78.007 30h3v3h-3zM75.007 33h3v3h-3zM84.007 33h3v3h-3zM72.007 36h3v3h-3zM84.007 36h3v3h-3zM78.007 39h3v3h-3zM90.007 39h3v3h-3zM78.007 42h3v3h-3zM99.007 42h3v3h-3zM42.007 45h3v3h-3zM75.007 45h3v3h-3zM36.007 51h3v3h-3zM27.007 54h3v3h-3zM33.007 54h3v3h-3zM30.007 57h3v3h-3zM27.007 60h3v3h-3zM24.007 63h3v3h-3zM36.007 63h3v3h-3zM21.007 66h3v3h-3zM33.007 66h3v3h-3zM42.007 66h3v3h-3zM12.007 69h3v3h-3zM18.007 69h3v3h-3zM30.007 69h3v3h-3zM39.007 69h6v3h-6zM15.007 72h3v3h-3zM27.007 72h3v3h-3zM36.007 72h3v3h-3z"/></g><path fill="#1c455a" d="M87.007 24h3v3h-3z"/><path fill="#60757c" d="M90.007 24h3v3h-3z"/><g fill="#eaf1e3"><path d="M99.007 24h3v3h-3zM135.007 42h3v3h-3zM162.007 54h3v3h-3zM150.007 60h3v3h-3zM63.007 72h3v3h-3zM99.007 75h6v3h-6zM111.007 75h3v3h-3zM120.007 75h6v3h-6zM132.007 75h3v3h-3zM144.007 75h3v3h-3zM162.007 75h3v3h-3zM171.007 75h3v3h-3z"/></g><g fill="#c8d6ba"><path d="M102.007 24h3v3h-3zM105.007 30h3v3h-3z"/></g><g fill="#bacfc8"><path d="M105.007 24h3v3h-3zM102.007 30h3v3h-3zM114.007 60h3v3h-3zM51.007 69h3v3h-3z"/></g><g fill="#c8d6c8"><path d="M108.007 24h3v3h-3zM111.007 27h3v3h-3zM48.007 45h3v3h-3zM54.007 51h3v3h-3zM159.007 51h3v3h-3zM153.007 54h3v3h-3zM45.007 57h3v3h-3zM108.007 63h3v3h-3zM57.007 66h3v3h-3zM75.007 69h3v3h-3zM42.007 75h3v3h-3zM51.007 75h3v3h-3z"/></g><path fill="#3e453e" d="M111.007 24h3v3h-3z"/><g fill="#d6cfcf"><path d="M120.007 24h3v3h-3zM174.007 63h3v3h-3z"/></g><path fill="#cfd6dd" d="M132.007 24h3v3h-3z"/><g fill="#1c1c1c"><path d="M135.007 24h6v3h-6zM39.007 36h3v3h-3zM33.007 42h3v3h-3zM21.007 54h3v3h-3zM15.007 60h3v3h-3zM.079 75v.07l-.002.045q0 .022-.002.043 0 .026-.002.051l-.002.05q-.001.025-.004.048l-.002.049q0 .026-.002.052l-.004.053-.002.047q0 .026-.002.053l-.004.066-.004.06v.114l.002.064q0 .035.002.069 0 .034.002.068.003.03.004.059l.002.048v.432l.004.012v.004c0 .012-.001.013-.002.017l.002.01v.002l-.002.024v.004l.002.004.004.012v.004q0 .036-.002.076v.008l.002.011v.002l-.002.032-.002.052q0 .036-.004.07l-.006.067v.121q-.001.016-.004.033v.03q-.001.015-.004.03 0 .019-.002.036v.033q0 .02-.002.037l-.002.031-.002.04q0 .022-.002.044 0 .027-.002.053-.001.024-.004.047 0 .023-.003.047v.014l.002.002.002.002.002.008.002.012v.017l-.004.024.002.021.006.067.003.05v.086q-.002.038-.003.076l-.002.045v.044l-.002.002v.004l-.002.02v.006h2.975v-3zM189.007 75h3v3h-3zM99.007 78h6v3h-6zM111.007 78h6v3h-6zM120.007 78h6v3h-6zM132.007 78h6v3h-6zM141.007 78h6v3h-6zM162.007 78h6v3h-6z"/></g><g fill="#8a8a8a"><path d="M144.007 24h3v3h-3zM24.007 48h3v3h-3z"/></g><g fill="#bababa"><path d="M45.007 27h3v3h-3zM129.007 27h3v3h-3z"/></g><g fill="#292929"><path d="M51.007 27h3v3h-3zM120.007 27h3v3h-3zM6.007 69h3v3h-3z"/></g><g fill="#454545"><path d="M54.007 27h3v3h-3zM162.007 48h3v3h-3z"/></g><path fill="#373737" d="M57.007 27h3v3h-3z"/><path fill="#98989f" d="M60.007 27h3v3h-3z"/><g fill="#b3b3ba"><path d="M66.007 27h3v3h-3zM27.007 45h3v3h-3z"/></g><g fill="#1c2937"><path d="M72.007 27h3v3h-3zM135.007 39h3v3h-3zM15.007 63h3v3h-3z"/></g><g fill="#c1d6c8"><path d="M102.007 27h3v3h-3zM105.007 33h3v3h-3zM141.007 42h3v3h-3zM51.007 51h3v3h-3zM150.007 51h3v3h-3zM156.007 51h3v3h-3zM48.007 54h6v3h-6zM57.007 54h3v3h-3zM48.007 57h3v3h-3zM51.007 72h3v3h-3z"/></g><g fill="#c1cfc1"><path d="M105.007 27h3v3h-3zM150.007 42h3v3h-3zM153.007 51h3v3h-3zM150.007 54h3v3h-3zM99.007 60h3v3h-3zM51.007 66h3v3h-3zM60.007 69h3v3h-3zM48.007 72h3v3h-3zM60.007 72h3v3h-3zM78.007 72h3v3h-3z"/></g><g fill="#c1cfc8"><path d="M108.007 27h3v3h-3zM102.007 33h3v3h-3zM96.007 36h3v3h-3zM150.007 45h6v3h-6zM93.007 51h3v3h-3zM54.007 75h3v3h-3zM63.007 75h6v3h-6zM75.007 75h3v3h-3zM84.007 75h3v3h-3z"/></g><g fill="#c8cfc8"><path d="M114.007 27h3v3h-3zM141.007 36h3v3h-3zM48.007 48h3v3h-3zM156.007 54h3v3h-3zM162.007 63h3v3h-3zM165.007 66h3v3h-3zM93.007 75h3v3h-3z"/></g><path fill="#3e3e45" d="M117.007 27h3v3h-3z"/><g fill="#293030"><path d="M132.007 27h3v3h-3zM165.007 51h3v3h-3z"/></g><g fill="#1c2237"><path d="M135.007 27h3v3h-3zM33.007 45h3v3h-3zM21.007 57h3v3h-3z"/></g><path fill="#3e5367" d="M138.007 27h3v3h-3z"/><g fill="#acaca5"><path d="M141.007 27h3v3h-3zM144.007 30h3v3h-3z"/></g><g fill="#292937"><path d="M144.007 27h3v3h-3zM27.007 48h3v3h-3z"/></g><g fill="#989898"><path d="M147.007 27h3v3h-3zM42.007 30h3v3h-3zM39.007 33h3v3h-3zM21.007 51h3v3h-3z"/></g><path fill="#222937" d="M48.007 30h3v3h-3z"/><path fill="#757c7c" d="M51.007 30h3v3h-3z"/><g fill="#303030"><path d="M60.007 30h3v3h-3zM156.007 39h3v6h-3z"/></g><g fill="#7c8383"><path d="M63.007 30h3v3h-3zM192.007 81h3v3h-3z"/></g><g fill="#1c303e"><path d="M69.007 30h3v3h-3zM66.007 33h3v3h-3z"/></g><g fill="#293e60"><path d="M75.007 30h3v3h-3zM81.007 36h3v3h-3zM39.007 42h3v3h-3zM78.007 45h3v3h-3zM33.007 57h3v3h-3zM27.007 63h3v3h-3zM21.007 69h3v3h-3z"/></g><g fill="#22455a"><path d="M81.007 30h3v3h-3zM75.007 36h3v3h-3zM81.007 39h3v3h-3zM90.007 42h3v3h-3zM96.007 45h3v3h-3zM42.007 48h3v3h-3zM36.007 54h3v3h-3zM105.007 57h3v3h-3zM30.007 60h3v3h-3zM33.007 63h3v3h-3zM24.007 66h3v3h-3zM27.007 69h3v3h-3zM18.007 72h3v3h-3z"/></g><path fill="#293e67" d="M87.007 30h3v3h-3z"/><path fill="#536775" d="M90.007 30h3v3h-3z"/><path fill="#c1cfba" d="M99.007 30h3v3h-3z"/><path fill="#cfddc8" d="M108.007 30h3v3h-3z"/><g fill="#dde3d6"><path d="M111.007 30h3v3h-3zM117.007 30h3v3h-3zM108.007 48h3v3h-3zM120.007 66h3v3h-3zM123.007 69h3v3h-3z"/></g><path fill="#373730" d="M123.007 30h3v3h-3z"/><path fill="#30293e" d="M129.007 30h3v3h-3z"/><g fill="#22303e"><path d="M132.007 30h3v3h-3zM30.007 48h3v3h-3zM24.007 54h3v3h-3zM12.007 66h3v3h-3zM6.007 72h3v3h-3z"/></g><path fill="#374c67" d="M138.007 30h3v3h-3z"/><path fill="#293037" d="M147.007 30h3v3h-3z"/><path fill="#29373e" d="M45.007 33h3v3h-3z"/><path fill="#b3c1c8" d="M48.007 33h3v3h-3z"/><path fill="#acb3ac" d="M63.007 33h3v3h-3z"/><path fill="#224560" d="M87.007 33h3v3h-3z"/><path fill="#e3ddd6" d="M93.007 33h3v3h-3z"/><g fill="#c8d6c1"><path d="M96.007 33h3v3h-3zM114.007 54h3v3h-3zM45.007 60h3v3h-3zM156.007 60h3v3h-3zM123.007 66h3v3h-3z"/></g><g fill="#c1d6c1"><path d="M99.007 33h3v3h-3zM138.007 36h3v3h-3zM144.007 42h3v3h-3zM42.007 60h3v3h-3zM117.007 60h3v3h-3zM54.007 69h6v3h-6zM75.007 72h3v3h-3z"/></g><g fill="#e3eacf"><path d="M108.007 33h3v3h-3zM135.007 57h3v3h-3z"/></g><path fill="#eaeacf" d="M117.007 33h3v3h-3z"/><g fill="#dde3dd"><path d="M120.007 33h3v3h-3zM105.007 36h3v3h-3zM117.007 66h3v3h-3z"/></g><g fill="#c1c8c1"><path d="M123.007 33h3v3h-3zM93.007 36h3v3h-3z"/></g><g fill="#676767"><path d="M126.007 33h3v3h-3zM159.007 48h3v3h-3z"/></g><path fill="#29293e" d="M129.007 33h3v3h-3z"/><path fill="#293760" d="M132.007 33h3v3h-3z"/><path fill="#1c3e53" d="M135.007 33h3v3h-3z"/><g fill="#acbaba"><path d="M138.007 33h3v3h-3zM54.007 57h3v3h-3z"/></g><path fill="#3e3e37" d="M153.007 33h3v3h-3z"/><path fill="#acacb3" d="M36.007 36h3v3h-3z"/><path fill="#223745" d="M42.007 36h3v3h-3z"/><path fill="#293753" d="M45.007 36h3v3h-3z"/><path fill="#f1f8f1" d="M48.007 36h3v3h-3z"/><g fill="#e3ead6"><path d="M51.007 36h3v3h-3zM51.007 45h3v3h-3zM57.007 51h3v3h-3zM78.007 54h3v3h-3zM84.007 57h3v3h-3zM93.007 57h3v3h-3zM147.007 57h3v3h-3zM165.007 57h3v3h-3zM78.007 63h3v3h-3zM141.007 63h3v3h-3zM168.007 63h3v3h-3zM60.007 66h3v3h-3zM99.007 66h3v3h-3zM144.007 66h3v3h-3zM153.007 66h3v3h-3zM114.007 69h3v3h-3zM135.007 69h3v3h-3zM162.007 69h3v3h-3zM174.007 69h3v3h-3zM117.007 72h3v3h-3zM138.007 72h3v3h-3z"/></g><g fill="#1c374c"><path d="M66.007 36h3v3h-3zM99.007 54h3v3h-3zM102.007 57h3v3h-3z"/></g><path fill="#1c3037" d="M102.007 36h3v3h-3z"/><g fill="#eae3dd"><path d="M108.007 36h3v3h-3zM51.007 39h3v3h-3zM132.007 45h3v3h-3zM135.007 51h3v3h-3zM84.007 54h3v3h-3zM138.007 54h3v3h-3zM90.007 57h3v3h-3zM141.007 57h3v3h-3zM78.007 60h3v3h-3zM144.007 60h6v3h-6zM84.007 63h3v3h-3zM126.007 63h3v3h-3zM153.007 63h3v3h-3zM138.007 66h3v3h-3zM120.007 69h3v3h-3zM141.007 69h3v3h-3zM150.007 69h3v3h-3zM159.007 69h3v3h-3zM168.007 69h3v3h-3zM111.007 72h3v3h-3zM132.007 72h3v3h-3zM153.007 72h3v3h-3zM162.007 72h3v3h-3zM177.007 72h3v3h-3z"/></g><g fill="#e3eae3"><path d="M126.007 36h3v3h-3zM84.007 45h3v3h-3z"/></g><path fill="#536767" d="M129.007 36h3v3h-3z"/><g fill="#1c3753"><path d="M135.007 36h3v3h-3zM102.007 48h3v3h-3zM48.007 63h3v3h-3z"/></g><g fill="#ddd"><path d="M150.007 36h3v3h-3zM.038 77.383l-.002.002v.002q0 .026-.002.053l-.004.046-.004.041.002.022.002.002.002.006.002.002v.02q-.001.007-.004.017l.002.025.006.063zm-.002.592-.002.002v.004l-.002.015-.004.041v.002l-.002.006-.002.002-.002.002v.002l-.002.002-.002.002-.002.002v.004q-.002.03-.006.057v.014l-.002.004v.051l-.002.012v.064l.002.066.002.053v.008l-.002.014v.008H.006v.002l-.002.002-.002.002H0v.199l.002.059.002.043v.037l.002.033.002.04v.206l-.002.072-.002.059h.002l.002.002.002.002.002.002.002.002v.002l.002.004.002.01v.004l.002.012v.011l-.002.034-.002.035v.027l-.002.033q.001.018-.002.035v.079q-.001.015-.004.029v.129l-.002.029-.002.03v.044h.002l.002.012.002.008.002.01.002.012v.011l.002.01.002.004v.01l.002.012v.016l-.002.025-.002.022v.025l-.002.026-.002.023v.029q0 .012-.004.026l-.002.021-.002.026v.037l-.002.037L0 80.15l.002.002.002.004.002.002.002.002.004.002v.004l.002.016v.096q.001.022.004.044v.014l.002.02-.004.054v.114l.002.004.004.012v.039q.002.014.002.029v.094l.004.012v.002l.002.02-.004.046v.012l-.002.011v.196l-.002.006-.002.004-.002.008v.002l-.002.002-.002.012-.004.004v.035l.006.014.002.006v.008l.002.043.002.011.002.002.002.004.002.006.002.012v.026l.002.011v.002l.002.008.002.002zm-.03 2.923-.001.057q0 .026-.002.053h.003z"/></g><path fill="#d6d6dd" d="M33.007 39h3v3h-3z"/><path fill="#152937" d="M39.007 39h3v3h-3z"/><path fill="#bac8cf" d="M45.007 39h3v3h-3z"/><g fill="#f1f8ea"><path d="M66.007 39h3v3h-3zM132.007 39h3v3h-3z"/></g><path fill="#98a5a5" d="M93.007 39h3v3h-3z"/><g fill="#c8ddd6"><path d="M96.007 39h3v3h-3zM138.007 39h3v3h-3z"/></g><path fill="#1c3745" d="M102.007 39h3v3h-3z"/><path fill="#f8f1ea" d="M129.007 39h3v3h-3z"/><g fill="#bad6c1"><path d="M141.007 39h3v3h-3zM150.007 48h3v3h-3zM45.007 51h3v3h-3zM156.007 57h3v3h-3z"/></g><g fill="#ddddd6"><path d="M144.007 39h3v3h-3zM105.007 45h3v3h-3zM171.007 60h3v3h-3z"/></g><g fill="#cfd6c8"><path d="M147.007 39h3v3h-3zM51.007 48h3v3h-3zM114.007 51h3v3h-3zM96.007 60h3v3h-3z"/></g><g fill="#e3f1e3"><path d="M150.007 39h3v3h-3zM141.007 75h3v3h-3zM153.007 75h3v3h-3zM180.007 75h3v3h-3z"/></g><path fill="#070e15" d="M153.007 39h3v3h-3z"/><path fill="#d6dddd" d="M30.007 42h3v3h-3z"/><path fill="#152237" d="M36.007 42h3v3h-3z"/><path fill="#acc8ba" d="M45.007 42h3v3h-3z"/><g fill="#ddeadd"><path d="M69.007 42h3v3h-3zM141.007 51h3v3h-3z"/></g><g fill="#293e53"><path d="M72.007 42h3v3h-3zM96.007 42h3v3h-3zM57.007 57h3v3h-3zM33.007 75h3v3h-3z"/></g><path fill="#293e4c" d="M84.007 42h3v3h-3z"/><path fill="#223e4c" d="M87.007 42h3v3h-3z"/><path fill="#98acac" d="M93.007 42h3v3h-3z"/><path fill="#1c3e4c" d="M102.007 42h3v3h-3z"/><g fill="#e3e3cf"><path d="M108.007 42h3v3h-3zM138.007 48h3v3h-3zM75.007 54h3v3h-3z"/></g><g fill="#304553"><path d="M138.007 42h3v3h-3zM111.007 60h3v3h-3z"/></g><g fill="#bac8c1"><path d="M147.007 42h3v3h-3zM156.007 48h3v3h-3zM114.007 57h3v3h-3zM72.007 69h3v3h-3z"/></g><g fill="#bac1c8"><path d="M45.007 45h3v3h-3zM72.007 45h3v3h-3z"/></g><path fill="#5a6e83" d="M81.007 45h3v3h-3z"/><path fill="#cfddd6" d="M87.007 45h3v3h-3z"/><path fill="#455a75" d="M90.007 45h3v3h-3z"/><g fill="#223e60"><path d="M93.007 45h3v3h-3zM39.007 48h3v3h-3z"/></g><path fill="#22304c" d="M102.007 45h3v3h-3z"/><path fill="#4c5a6e" d="M141.007 45h3v3h-3z"/><g fill="#acc8c1"><path d="M144.007 45h3v3h-3zM48.007 60h3v3h-3z"/></g><path fill="#bad6ba" d="M147.007 45h3v3h-3z"/><path fill="#373e37" d="M156.007 45h3v3h-3z"/><g fill="#4c4c5a"><path d="M159.007 45h3v3h-3zM183.007 66h3v3h-3z"/></g><path fill="#c1c1c1" d="M162.007 45h3v3h-3z"/><path fill="#b3c8c8" d="M45.007 48h3v3h-3z"/><path fill="#5a758a" d="M75.007 48h3v3h-3z"/><path fill="#98acba" d="M78.007 48h3v3h-3z"/><path fill="#e3f1d6" d="M84.007 48h3v3h-3z"/><g fill="#c1c8c8"><path d="M90.007 48h3v3h-3zM165.007 48h3v3h-3z"/></g><path fill="#3e5a6e" d="M93.007 48h3v3h-3z"/><path fill="#678383" d="M105.007 48h3v3h-3z"/><path fill="#7c8a9f" d="M141.007 48h3v3h-3z"/><path fill="#456075" d="M144.007 48h3v3h-3z"/><path fill="#acc1b3" d="M147.007 48h3v3h-3z"/><g fill="#bacfc1"><path d="M153.007 48h3v3h-3zM48.007 51h3v3h-3zM108.007 51h3v3h-3zM45.007 54h3v3h-3zM54.007 54h3v3h-3zM42.007 57h3v3h-3zM51.007 57h3v3h-3zM54.007 66h3v3h-3zM45.007 72h3v3h-3zM57.007 72h3v3h-3z"/></g><g fill="#293045"><path d="M27.007 51h3v3h-3zM9.007 69h3v3h-3z"/></g><g fill="#8aa5ac"><path d="M42.007 51h3v3h-3zM42.007 72h3v3h-3z"/></g><path fill="#e3dddd" d="M75.007 51h3v3h-3z"/><path fill="#ddeacf" d="M90.007 51h3v3h-3z"/><g fill="#223e53"><path d="M99.007 51h3v3h-3zM12.007 75h3v3h-3z"/></g><g fill="#375360"><path d="M105.007 51h3v3h-3zM105.007 60h3v3h-3z"/></g><g fill="#ddead6"><path d="M111.007 51h3v3h-3zM60.007 54h3v3h-3zM69.007 66h3v3h-3zM165.007 69h3v3h-3z"/></g><path fill="#7c7c91" d="M144.007 51h3v3h-3z"/><path fill="#a5b3ba" d="M147.007 51h3v3h-3z"/><path fill="#606060" d="M162.007 51h3v3h-3z"/><path fill="#293029" d="M168.007 51h3v3h-3z"/><path fill="#babac1" d="M18.007 54h3v3h-3z"/><path fill="#919fac" d="M42.007 54h3v3h-3z"/><g fill="#cfddcf"><path d="M93.007 54h3v3h-3zM102.007 63h3v3h-3zM162.007 66h3v3h-3z"/></g><g fill="#c1cfcf"><path d="M96.007 54h3v3h-3zM45.007 75h3v3h-3z"/></g><path fill="#677c8a" d="M108.007 54h3v3h-3z"/><g fill="#eaf1dd"><path d="M144.007 54h3v3h-3zM117.007 57h3v3h-3zM162.007 57h3v3h-3zM168.007 60h3v3h-3zM93.007 72h3v3h-3z"/></g><g fill="#eaeaea"><path d="M165.007 54h3v3h-3zM168.007 57h3v3h-3z"/></g><path fill="#0e150e" d="M168.007 54h3v3h-3z"/><path fill="#dddde3" d="M15.007 57h3v3h-3z"/><path fill="#607c83" d="M39.007 57h3v3h-3z"/><path fill="#bac8c8" d="M60.007 57h3v3h-3z"/><g fill="#cfd6c1"><path d="M96.007 57h3v3h-3zM72.007 66h3v3h-3z"/></g><path fill="#a5b3c1" d="M111.007 57h3v3h-3z"/><g fill="#c8cfba"><path d="M150.007 57h3v3h-3zM153.007 60h3v3h-3z"/></g><g fill="#bad6c8"><path d="M153.007 57h3v3h-3zM159.007 60h3v3h-3zM48.007 69h3v3h-3zM54.007 72h3v3h-3z"/></g><path fill="#0e0e0e" d="M171.007 57h3v3h-3z"/><path fill="#303e37" d="M174.007 57h3v3h-3z"/><path fill="#d6cfdd" d="M177.007 57h3v3h-3z"/><path fill="#152230" d="M18.007 60h3v3h-3z"/><path fill="#a5c1c8" d="M51.007 60h3v3h-3z"/><g fill="#30455a"><path d="M54.007 60h3v3h-3zM6.007 75h3v3h-3zM27.007 75h6v3h-6z"/></g><path fill="#8a9191" d="M57.007 60h3v3h-3z"/><g fill="#c1d6cf"><path d="M102.007 60h3v3h-3zM87.007 75h3v3h-3z"/></g><path fill="#374c5a" d="M108.007 60h3v3h-3z"/><g fill="#d6ddcf"><path d="M162.007 60h3v3h-3zM111.007 63h6v3h-6zM126.007 66h3v3h-3z"/></g><path fill="#5a6767" d="M177.007 60h3v3h-3z"/><path fill="#c8c8c8" d="M180.007 60h3v3h-3z"/><path fill="#9f989f" d="M9.007 63h3v3h-3z"/><path fill="#221c30" d="M12.007 63h3v3h-3z"/><path fill="#4c6775" d="M39.007 63h3v3h-3z"/><path fill="#839f9f" d="M42.007 63h6v3h-6z"/><path fill="#6e8383" d="M54.007 63h3v3h-3z"/><path fill="#dde3cf" d="M69.007 63h3v3h-3z"/><path fill="#bacfba" d="M99.007 63h3v3h-3z"/><path fill="#bac8ba" d="M117.007 63h3v3h-3z"/><path fill="#d6e3cf" d="M120.007 63h3v3h-3z"/><path fill="#c8ddc1" d="M159.007 63h3v3h-3z"/><path fill="#4c4c45" d="M177.007 63h3v3h-3z"/><path fill="#676775" d="M180.007 63h3v3h-3z"/><path fill="#838383" d="M6.007 66h3v3h-3z"/><path fill="#9facb3" d="M48.007 66h3v3h-3z"/><path fill="#d6ddd6" d="M75.007 66h3v3h-3z"/><path fill="#d6d6c1" d="M177.007 66h3v3h-3z"/><path fill="#4c4c53" d="M180.007 66h3v3h-3z"/><path fill="#9f9f9f" d="M3.007 69h3v3h-3z"/><path fill="#acc1c8" d="M45.007 69h3v3h-3z"/><path fill="#302930" d="M186.007 69h3v3h-3z"/><g fill="#e3f1dd"><path d="M66.007 72h3v3h-3zM108.007 75h3v3h-3zM129.007 75h3v3h-3zM150.007 75h3v3h-3zM159.007 75h3v3h-3zM168.007 75h3v3h-3zM177.007 75h3v3h-3z"/></g><path fill="#c8cfc1" d="M81.007 72h3v3h-3z"/><path fill="#07070e" d="M186.007 72h3v3h-3z"/><path fill="#222230" d="M189.007 72h3v3h-3z"/><path fill="#224553" d="M21.007 75h3v3h-3z"/><path fill="#6e7c83" d="M39.007 75h3v3h-3z"/><path fill="#f1eae3" d="M135.007 75h3v3h-3z"/><path fill="#f1f1e3" d="M186.007 75h3v3h-3z"/><path fill="#3e3e3e" d="M192.007 75h3v3h-3z"/><path fill="#1c1522" d="m.032 78-.004.031v.008l-.002.006-.002.002-.002.002v.002l-.002.002-.002.002-.002.002v.004l-.006.057v.008l-.002.006v.01q0 .008-.002.013v.114l.002.052-.002.016v1.305l.002.016v.008l-.002.025V81h3v-3z"/><g fill="#221c29"><path d="M54.007 78h3v3h-3zM63.007 78h3v3h-3zM75.007 78h3v3h-3z"/></g><g fill="#222"><path d="M108.007 78h3v3h-3zM117.007 78h3v3h-3zM129.007 78h3v3h-3zM138.007 78h3v3h-3zM150.007 78h3v3h-3zM177.007 78h3v3h-3z"/></g><path fill="#373745" d="M192.007 78h3v3h-3z"/><g fill="#757575"><path d="M9.007 81h6v3h-6zM21.007 81h6v3h-6zM30.007 81h6v3h-6zM39.007 81h6v3h-6zM72.007 81h3v3h-3zM81.007 81h6v3h-6zM93.007 81h3v3h-3zM111.007 81h9v3h-9zM123.007 81h6v3h-6zM132.007 81h9v3h-9zM153.007 81h3v3h-3zM171.007 81h3v3h-3zM189.007 81h3v3h-3z"/></g><g fill="#6e756e"><path d="M15.007 81h3v3h-3zM183.007 81h3v3h-3z"/></g><g fill="#756e6e"><path d="M18.007 81h3v3h-3zM60.007 81h3v3h-3zM141.007 81h3v3h-3zM150.007 81h3v3h-3zM180.007 81h3v3h-3z"/></g><g fill="#75756e"><path d="M45.007 81h3v3h-3zM90.007 81h3v3h-3zM162.007 81h3v3h-3z"/></g><g fill="#6e676e"><path d="M48.007 81h3v3h-3zM57.007 81h3v3h-3zM99.007 81h3v3h-3z"/></g><g fill="#756e75"><path d="M51.007 81h6v3h-6zM63.007 81h3v3h-3zM75.007 81h3v3h-3zM102.007 81h3v3h-3zM159.007 81h3v3h-3zM168.007 81h3v3h-3z"/></g><path fill="#75676e" d="M69.007 81h3v3h-3z"/><g fill="#6e7575"><path d="M105.007 81h3v3h-3zM144.007 81h6v3h-6zM165.007 81h3v3h-3z"/></g><path fill="#676e6e" d="M108.007 81h3v3h-3z"/><g fill="#6e757c"><path d="M156.007 81h3v3h-3zM174.007 81h3v3h-3z"/></g><path fill="#756e7c" d="M177.007 81h3v3h-3z"/><path fill="#756775" d="M186.007 81h3v3h-3z"/></svg>