<svg xmlns="http://www.w3.org/2000/svg" width="888.125" height="566.77" viewBox="0 0 234.983 149.958"><path d="M201.53 75.314v4.998h-5v4.999h-4.998v4.998h-4.999v20h5v4.987h-9.976v5h4.982v14.99h5v-15h-.001v-4.982h4.995v-5h-5V90.31h5v-4.998h4.998v-4.999h19.997v4.999h4.99v4.998h25v-5h5v-4.997h20v4.999h4.998v4.998h4.999v19.992h-4.976v5h4.997v19.982h-4.999v10h5v-10h5V115.3h-4.998v-4.991h4.976v-20h-5V85.31h-4.997v-4.999h-5v-4.998h-20v4.997h-5v5h-24.99v-4.999h-4.998v-4.998zm-9.99 59.971v10h5v-10zm5 10v5h5v5h5v4.999h10v9.992h5v-14.992h-15v-5h-5v-4.999zm9.983-54.977v4.997h-4.993v9.998h10v4.999h-4.998v5h10v-5h4.998v-9.999h-.009v-4.998h-4.998v-4.997zm54.998 0v4.997h-4.993v9.998h10v4.999h-4.998v-4.995h-5v5h5v4.994h10v-4.998h4.998v-10h-.008v-4.998h-4.998v-4.997zm-49.991 5h4.991v4.995h-4.991zm54.998 0h4.991v4.995h-4.99zm-129.973 9.968v5h35v-5zm64.976.031v5h5v-5zm-79.98 4.96v4.99h-9.999v5h10v-4.99h15v-5zm50.004.012v5h10v-5zm-70.004 9.976v5h-5v5h5v-5h10v-5zm124.958.05v5h5v5h15v-5h4.998v-5h-5v5h-14.94v-5zm-134.958 9.95v4.999h5v-5zm-5.002 5.033v5h5v-5zm-5 4.999v4.996H66.55v4.999h-4.998v4.998h-4.999v10h5v-9.999h4.999v-4.999h10v5h-4.999v4.998h-5v5h-5v5h10.001v-9.998h4.998v9.999h-4.998v5h5v4.999h4.998v4.998h5v4.997h-15v5h15v-4.998h9.992v4.987h15v-5h15v-5h-15v5H96.552v-4.986h-10v-4.997h9.991v4.982h15v-5H96.549v-4.982h-10v-5h-4.996v-19.999h4.999v-5h-.002v-4.995zm194.976 5.004v5h-4.986v5h5v-5h4.986v-5zm-19.986 10v5h-5v4.998h-4.999v4.982h-5v5h-4.997v5h-4.997v4.999h-5v5h10v-9.998h4.997v-5h4.998v-4.983h5v-4.999h4.999v-4.999h15v-5zm-19.994 34.98v20h5v-20zm-25.007-19.999v5h5v-5zm-134.985.01h4.996v4.998h-4.996zm124.987 4.993v4.995h-9.994v5h10v5h5v-5h-5v-4.995h5v4.994h20v-5H216.54v-4.994zm-119.986.007h4.994v4.996h-4.994zm94.991 9.985v5h15v-5zm-50 5v5h50v-5zm70 .003v5h5v-5zm-84.999 4.999v5h15v-5zm69.999.002v5h-55v5h39.992v5h5v-5h10.008v-5h15v-5zm-10.008 15v5h5v-5zM61.552 195.275v4.995h-4.996v10h5v-9.994h9.996v-5zm59.993 9.996v5h5v-5zm110 5v5h5v-5zm-120 0v5H76.548v-4.995h-15v5h14.997v4.995h35v-4.999h10v-5zm64.993 5v5h10v-5zm45.006 0v5h10v-5zm-35.001 5v5h35v-5z" style="fill:#000;fill-opacity:1;fill-rule:evenodd;stroke:#ff3600;stroke-width:0" transform="translate(-56.553 -75.314)"/><path d="M196.54 140.285v5h5v5h4.998v-5.003h-4.998v-4.997zm79.997 0v5h5v-5zm-4.999 5.001v5.005h5v-5.005zm-64.999 4.998v5.006h15v-5.006zm50 .008v4.998h-35v14.98h-5v5.001h25.004v-4.985h4.996v-4.998h5v-4.998h5v-4.998h15v-5zm-194.985 9.989v5.003h5v-5.003zm154.984 14.991v5h10.005v5h5v-5h5.003v-5zm15.006 14.999v20h5v-20zm-115 10v5h10v-5zm-54.99.017v4.996h-.005v5h14.996v4.988h35v-5H76.55v-4.988h-9.994v-4.996zm109.985 4.98v5.005h5v4.998h10v-5h-10v-5.002zm-64.995.003v5h15v-5zm110 5v5h15v-5zm-30.004 5v5h35v-5z" style="fill:#6d9a37;fill-opacity:1;fill-rule:evenodd;stroke:#ff3600;stroke-width:0" transform="translate(-56.553 -75.314)"/><path d="M201.525 85.31v4.999h-9.994v20h4.997v4.975h-4.985v20h4.982v.025h.005v4.988h5.01v4.99h5v4.997h15v5.006h35v-5.002h15v-5h5v-4.99h4.999v-4.996h4.999v-20h-5v-4.993h4.982v-20h-10V85.31h-20v5h15.002v5h4.998v14.998h-4.981v4.991H261.53v-4.998h-5v-14.99h4.993v-5h-44.999v5h5.007v14.99h-4.997v4.99h-10.006v-4.983h-4.997V95.31h4.993v-5h15v-5zm55.006 29.993v4.997zm25.006.006v14.988h-5v5h5-9.997v-.003h-5.001v-5h-10 4.965V125.3h5.005v-5h10.028v4.998h5v-9.989zm-79.987 4.983h10.007v5.008h5.014v4.993h4.969-9.998v4.98h-9.989v-4.987h-5.01v-4.995h5.007zm25.007.013h5.01v4.988h-5.01zm19.952 0h5v4.988h-5zm-14.938 4.998h14.933v4.987h-14.933zm-165.019 24.98v4.999h10v-5zm-4.992 5.004v5h10v-5zm144.98 29.984v5h-5.023v5h-4.967v20h4.994v.001h15v-5h-14.995v-.002h4.991v.001h25v-20h-5v-5zM86.537 190.28v4.997h-9.98v-.003h-5v5.005h4.98-9.984v5.005h9.984v4.993h10v.001h10.006V190.28zm10.007 4.985v15h10v-9.995h5v-5.004h-15zm85 4.994v5.004h4.997v.002h-10.003v5.004h10.003v5.005h10.004v-15h-10v-.015zm-74.995.015v5.004h10.009v-5.004z" style="fill:#c0ea00;fill-opacity:1;fill-rule:evenodd;stroke:#ff3600;stroke-width:0" transform="translate(-56.553 -75.314)"/><path d="M211.522 95.305v5h5v-5zm54.998 0v5h5v-5zM206.53 105.31v5h5v-5zm54.999 0v5h5v-5z" style="fill:#fff;fill-opacity:1;fill-rule:evenodd;stroke:#ff3600;stroke-width:0" transform="translate(-56.553 -75.314)"/><path d="M256.52 80.309v5h20v-5zm-54.987.003v5h19.995v4.999h5v-5h-4.995v-5zm-5.002 4.999v5h5v-5zm54.99 0v5h5v-5zm24.994 0v5h5v-5z" style="fill:#d8ef72;fill-opacity:1;fill-rule:evenodd;stroke:#ff3600;stroke-width:0" transform="translate(-56.553 -75.314)"/><path d="M201.551 120.292v4.992h-5.007v5h5.007v4.996h10.033v-4.996h4.995v-5h-4.995v-4.992zm64.96.015v4.993h-5.007v5h5.008v4.996h10.033v-4.995h4.994v-5h-4.994v-4.994z" style="fill:#fc97ff;fill-opacity:1;fill-rule:evenodd;stroke:#ff3600;stroke-width:0" transform="translate(-56.553 -75.314)"/><path d="M81.552 160.273v5.002h4.998v-5.002zm129.988 5v5.002h4.998v-5.002zm0 5.002h-4.998v5.002h4.998zm-129.987-5v5.007h10.006v-5.007zm4.995 5.017v5h14.998v4.985h9.998v4.987h20v-5h-14.998v-4.987h-14.998v-4.985zm99.999 4.988v4.99h-15.002v5h.007v5h4.998v-5h14.995v-4.99h10.002v-5zm-60.01 9.984v5.007h10.007v-5.007zm15.006.006v5h25v-5z" style="fill:#043a1e;fill-opacity:1;fill-rule:evenodd;stroke:#ff3600;stroke-width:0" transform="translate(-56.553 -75.314)"/><path d="M-141.543 115.288v4.984h19.999v5h-19.995v5h4.942v-4.998h25v5h-24.953v14.999h-4.99v4.99h-25v-4.967h-4.991v-5.01h-4.994v-5h4.994v-4.99h4.992v-5.033h24.995v-4.975h-25v-5zm-25.009 4.983v5h-4.972v4.994h-5v-4.994h-5.028v-5zm-9.994 5.009v10h-10v-10zm70 4.999v4.988h10v5.013h-10v-5.001h-25v-5zm-25.002 5.007v4.99h24.994v5.012h4.99v4.982h4.99v5h-4.99v5.018h-4.99v4.989h-25v-4.99h-4.988v5.016h4.994v5h-4.994v4.983h-4.997v5.002h-25v-5.002h-4.984v-15h4.984v-4.998h25v4.998h4.991v-5.015h-4.968v-5h4.968v-4.983h4.995v-5.001h-4.995v-5zm-44.998 4.996v25h-14.986v.007h-5v-20h4.986v-5.007zm84.993 0v4.994h5.005v5.002h-10v-4.993h-5.005v-5.002zm-79.989 4.996v4.992h4.998v5h-4.998v5.008h-5v-15zm-24.993 5.013v15h-5v-15zm-5.004 4.996v5h-5v-5zm119.967.006v5h-4.977v4.994h-4.994v4.994h-15v4.996h-25v-5h25v-4.996h4.994v-4.994h4.978v-4.994zm-124.967 4.99v5h4.998v5h-10v-5h-4.999v-5zm35.012 5.008v5h-4.986v4.986h-25v-5h24.985v-4.986zm-5.02 9.988v5h-10v-5zm60.003.014v5h-15v4.999h-10v-5h5v-5zm-55 .002v4.994h4.994v5h-5v-4.994h-4.994v-5z" style="fill:#55a518;fill-opacity:1;fill-rule:evenodd;stroke:#ff3600;stroke-width:0" transform="matrix(-1 0 0 1 -56.553 -75.314)"/><path d="M201.544 170.282h4.998v5.002h-4.998zM201.542 160.283h4.998v5.002h-4.998zM176.542 165.284h25v5.002h-25zM171.541 160.283h4.998v5.002h-4.998zM171.543 170.285h4.998v5.002h-4.998zM141.542 180.291h25v5.002h-25zM166.544 175.288h4.998v5.002h-4.998z" style="fill:#dae321;fill-opacity:1;fill-rule:evenodd;stroke:#ff3600;stroke-width:0" transform="translate(-56.553 -75.314)"/><path d="M141.542-155.278h25v5.002h-25zM166.544-160.282h4.998v5.002h-4.998z" style="fill:#dae321;fill-opacity:1;fill-rule:evenodd;stroke:#ff3600;stroke-width:0" transform="matrix(1 0 0 -1 -56.553 -75.314)"/><path d="M-136.545 160.283h4.998v5.002h-4.998z" style="fill:#dae321;fill-opacity:1;fill-rule:evenodd;stroke:#ff3600;stroke-width:0" transform="matrix(-1 0 0 1 -56.553 -75.314)"/><path d="M-141.542-160.282h4.998v5.002h-4.998z" style="fill:#dae321;fill-opacity:1;fill-rule:evenodd;stroke:#ff3600;stroke-width:0" transform="matrix(-1 0 0 -1 -56.553 -75.314)"/><path d="M136.544 175.294h4.998v5.002h-4.998z" style="fill:#dae321;fill-opacity:1;fill-rule:evenodd;stroke:#ff3600;stroke-width:0" transform="translate(-56.553 -75.314)"/><path d="M131.547-175.293h4.998v5.002h-4.998z" style="fill:#dae321;fill-opacity:1;fill-rule:evenodd;stroke:#ff3600;stroke-width:0" transform="matrix(1 0 0 -1 -56.553 -75.314)"/><path d="M106.548 165.287h25v5.002h-25z" style="fill:#dae321;fill-opacity:1;fill-rule:evenodd;stroke:#ff3600;stroke-width:0" transform="translate(-56.553 -75.314)"/><path d="M171.541-145.279h4.998v5.002h-4.998z" style="fill:#dae321;fill-opacity:1;fill-rule:evenodd;stroke:#ff3600;stroke-width:0" transform="matrix(1 0 0 -1 -56.553 -75.314)"/><path d="M166.544 145.281h4.998v5.002h-4.998z" style="fill:#dae321;fill-opacity:1;fill-rule:evenodd;stroke:#ff3600;stroke-width:0" transform="translate(-56.553 -75.314)"/><path d="M-136.545-145.279h4.998v5.002h-4.998z" style="fill:#dae321;fill-opacity:1;fill-rule:evenodd;stroke:#ff3600;stroke-width:0" transform="matrix(-1 0 0 -1 -56.553 -75.314)"/><path d="M-141.542 145.281h4.998v5.002h-4.998z" style="fill:#dae321;fill-opacity:1;fill-rule:evenodd;stroke:#ff3600;stroke-width:0" transform="matrix(-1 0 0 1 -56.553 -75.314)"/><path d="M171.541 130.273h4.998v5.002h-4.998z" style="fill:#dae321;fill-opacity:1;fill-rule:evenodd;stroke:#ff3600;stroke-width:0" transform="translate(-56.553 -75.314)"/><path d="M141.542-125.268h25v5.002h-25zM166.544-130.271h4.998v5.002h-4.998z" style="fill:#dae321;fill-opacity:1;fill-rule:evenodd;stroke:#ff3600;stroke-width:0" transform="matrix(1 0 0 -1 -56.553 -75.314)"/><path d="M-136.545 130.273h4.998v5.002h-4.998z" style="fill:#dae321;fill-opacity:1;fill-rule:evenodd;stroke:#ff3600;stroke-width:0" transform="matrix(-1 0 0 1 -56.553 -75.314)"/><path d="M-141.542-130.271h4.998v5.002h-4.998z" style="fill:#dae321;fill-opacity:1;fill-rule:evenodd;stroke:#ff3600;stroke-width:0" transform="matrix(-1 0 0 -1 -56.553 -75.314)"/><path d="M176.538 135.274h15v5.002h-15z" style="fill:#dae321;fill-opacity:1;fill-rule:evenodd;stroke:#ff3600;stroke-width:0" transform="translate(-56.553 -75.314)"/><path d="M166.544-120.272h4.998v5.002h-4.998zM136.546-120.266h4.998v5.002h-4.998z" style="fill:#dae321;fill-opacity:1;fill-rule:evenodd;stroke:#ff3600;stroke-width:0" transform="matrix(1 0 0 -1 -56.553 -75.314)"/><path d="M106.548 135.277h25v5.002h-25z" style="fill:#dae321;fill-opacity:1;fill-rule:evenodd;stroke:#ff3600;stroke-width:0" transform="translate(-56.553 -75.314)"/><path d="M-106.548 130.264h4.998v5.002h-4.998z" style="fill:#dae321;fill-opacity:1;fill-rule:evenodd;stroke:#ff3600;stroke-width:0" transform="matrix(-1 0 0 1 -56.553 -75.314)"/><path d="M101.547 160.283h4.998v5.002h-4.998z" style="fill:#dae321;fill-opacity:1;fill-rule:evenodd;stroke:#ff3600;stroke-width:0" transform="translate(-56.553 -75.314)"/><path d="M96.55-160.282h4.998v5.002H96.55zM101.547-145.279h4.998v5.002h-4.998z" style="fill:#dae321;fill-opacity:1;fill-rule:evenodd;stroke:#ff3600;stroke-width:0" transform="matrix(1 0 0 -1 -56.553 -75.314)"/><path d="M96.55 145.281h4.998v5.002H96.55zM81.55 150.282h15v5.002h-15zM166.544 185.291h4.998v4.969h-4.998zM136.545 185.291h4.998v4.969h-4.998z" style="fill:#dae321;fill-opacity:1;fill-rule:evenodd;stroke:#ff3600;stroke-width:0" transform="translate(-56.553 -75.314)"/><path d="M126.545 195.269h55v5h-55zM111.544 190.263h15v5h-15zM96.53 185.258h15v5h-15z" style="fill:#fbeca2;fill-opacity:1;fill-rule:evenodd;stroke:#ff3600;stroke-width:0" transform="translate(-56.553 -75.314)"/><path d="M86.541 180.275h10v5h-10z" style="fill:#fbeca2;fill-opacity:1;fill-rule:evenodd;stroke:#ff3600;stroke-width:0" transform="translate(-56.553 -75.314)"/><path d="M81.549 175.292h5v5h-5zM76.553 170.282h5v5h-5zM71.551 160.283h5v10h-5zM176.546 190.269h20v5h-20zM191.539 185.268h10v5h-10zM201.545 180.266h5v5h-5z" style="fill:#fbeca2;fill-opacity:1;fill-rule:evenodd;stroke:#ff3600;stroke-width:0" transform="translate(-56.553 -75.314)"/><path d="M101.547 170.291h4.998v5.002h-4.998zM96.548 175.281h4.998v5.002h-4.998z" style="fill:#dae321;fill-opacity:1;fill-rule:evenodd;stroke:#ff3600;stroke-width:0" transform="translate(-56.553 -75.314)"/><path d="M136.553 110.275v4.987h-14.999v5.002h15v-4.986h35v-5.003zm35.004 5.008v5.002h10v-5.002zm-60.003 4.98v5.001h10v-5.002zm69.985.036v5.002h4.998v-5.002zm-79.989 4.958v5.002h-4.998v4.996h-4.998v5.03h5v-5.026h4.997v-5h10v-5.002zm-14.984 15.035v5h5v-5z" style="fill:#abe79b;fill-opacity:1;fill-rule:evenodd;stroke:#ff3600;stroke-width:0" transform="translate(-56.553 -75.314)"/></svg>