<?xml version="1.0" encoding="UTF-8" standalone="no"?>
<svg
   width="1068.6907"
   height="1027.7318"
   viewBox="0 0 1068.6907 1027.7318"
   version="1.1"
   xml:space="preserve"
   style="clip-rule:evenodd;fill-rule:evenodd;stroke-linecap:round;stroke-linejoin:round;stroke-miterlimit:1.5"
   id="svg17"
   sodipodi:docname="Earth Server Turtle Cut Optimized.svg"
   inkscape:version="1.4.2 (ebf0e940d0, 2025-05-08)"
   xmlns:inkscape="http://www.inkscape.org/namespaces/inkscape"
   xmlns:sodipodi="http://sodipodi.sourceforge.net/DTD/sodipodi-0.dtd"
   xmlns="http://www.w3.org/2000/svg"
   xmlns:svg="http://www.w3.org/2000/svg"
   xmlns:serif="http://www.serif.com/"><sodipodi:namedview
   id="namedview17"
   pagecolor="#ffffff"
   bordercolor="#000000"
   borderopacity="0.25"
   inkscape:showpageshadow="2"
   inkscape:pageopacity="0.0"
   inkscape:pagecheckerboard="0"
   inkscape:deskcolor="#d1d1d1"
   inkscape:zoom="0.37777835"
   inkscape:cx="757.05769"
   inkscape:cy="606.17556"
   inkscape:window-width="1920"
   inkscape:window-height="1012"
   inkscape:window-x="0"
   inkscape:window-y="0"
   inkscape:window-maximized="1"
   inkscape:current-layer="Turtle-2" /><defs
   id="defs17">
            
        
            
        
            
        
            
        
            
        
            
        
            
        
            
        
            
            
            
            
            
        
            
        
            
        
            
        
            
        
                
            
                
            
                
            </defs>
    <g
   id="Turtle-2"
   serif:id="Turtle 2"
   transform="matrix(0.720411,0,0,0.823038,-170.93568,-18.130731)">
        <path
   d="m 979.001,340 c 0,0 108.519,-7.522 210.269,58.653 62.44,40.602 120.53,146.09 124.65,223.71 4.33,81.27 -18.03,203.014 -83.46,273.911 -43.28,46.91 -148.55,106.436 -190.46,140.726 -21.48,17.57 -51.665,43 -60.999,43 -9.333,0 -38.127,-24.29 -60.999,-43 C 876.091,1002.71 770.472,942.813 727.535,896.274 662.122,825.377 639.758,703.633 644.078,622.363 648.204,544.743 706.296,439.255 768.729,398.653 870.485,332.478 979.001,340 979.001,340 Z m -295.02,322.129 c 0.124,3.35 0.323,6.684 0.592,10 2.973,36.63 14.687,71.161 33.324,102 2.042,3.378 4.166,6.712 6.372,10 7.695,11.473 16.374,22.381 25.934,32.635 3.234,3.469 6.568,6.863 9.999,10.179 25.291,24.437 55.843,44.624 90.088,59.186 8.712,3.705 17.664,7.046 26.829,10 30.34,9.779 63.015,15.318 97.084,15.795 1.596,0.022 3.195,0.033 4.798,0.033 1.737,0 3.472,-0.013 5.202,-0.039 33.917,-0.514 66.457,-6.048 96.687,-15.789 9.16,-2.954 18.11,-6.295 26.83,-10 34.42,-14.639 65.11,-34.964 90.49,-59.577 3.43,-3.33 6.76,-6.738 10,-10.221 9.4,-10.129 17.94,-20.891 25.52,-32.202 2.21,-3.288 4.34,-6.622 6.37,-10 18.64,-30.839 30.36,-65.37 33.33,-102 0.27,-3.316 0.47,-6.65 0.6,-10 0.09,-2.837 0.15,-5.685 0.15,-8.544 0,-32.95 -7.06,-64.468 -19.93,-93.456 -1.49,-3.368 -3.07,-6.702 -4.72,-10 -10.72,-21.436 -24.68,-41.356 -41.32,-59.289 -3.24,-3.483 -6.57,-6.892 -10,-10.221 -12.25,-11.882 -25.74,-22.764 -40.29,-32.49 -5.22,-3.484 -10.56,-6.82 -16.04,-10 -14.38,-8.357 -29.66,-15.64 -45.68,-21.716 -3.3,-1.254 -6.63,-2.456 -10,-3.605 -31.71,-10.837 -66.07,-17.01 -101.997,-17.555 -1.73,-0.026 -3.465,-0.039 -5.202,-0.039 -1.602,0 -3.202,0.011 -4.798,0.033 -35.917,0.502 -70.284,6.631 -102,17.423 -3.363,1.145 -6.697,2.342 -10.001,3.59 -16.156,6.107 -31.568,13.441 -46.081,21.869 -5.477,3.18 -10.826,6.516 -16.038,10 -14.39,9.619 -27.741,20.37 -39.881,32.099 -3.431,3.316 -6.765,6.71 -9.999,10.179 -16.823,18.045 -30.916,38.113 -41.728,59.722 -1.651,3.298 -3.225,6.632 -4.72,10 -12.87,28.988 -19.933,60.506 -19.933,93.456 0,2.859 0.054,5.707 0.159,8.544 z"
   style="fill:#637438;stroke:#000000;stroke-width:1.30086px;stroke-opacity:0"
   id="path1" />
        <path
   d="m 663.053,662.13 c -0.527,-12.779 -0.47,-25.002 0.125,-36.395 1.07,-20.465 5.987,-42.95 13.779,-65.606 1.146,-3.332 2.353,-6.667 3.621,-10 14.039,-36.933 35.329,-73.599 59.665,-102 2.965,-3.46 5.975,-6.799 9.024,-10 0.31,-0.325 0.62,-0.649 0.93,-0.972 3.295,-3.42 6.631,-6.679 10.001,-9.758 6.732,-6.154 13.598,-11.592 20.521,-16.17 27.488,-18.178 55.499,-30.557 81.478,-38.966 3.37,-1.091 6.704,-2.115 10,-3.076 48.639,-14.187 88.615,-14.702 102,-14.388 3.123,0.073 4.798,0.19 4.798,0.19 0,0 1.82,-0.128 5.202,-0.2 13.808,-0.293 53.663,0.355 102.003,14.516 3.29,0.966 6.62,1.994 10,3.089 25.87,8.407 53.72,20.751 81.07,38.835 7.06,4.669 14.07,10.233 20.92,16.539 3.37,3.097 6.71,6.372 10.01,9.809 0.17,0.183 0.34,0.368 0.52,0.552 3.05,3.201 6.06,6.539 9.02,10 24.35,28.401 45.63,65.067 59.67,102 1.27,3.333 2.48,6.668 3.63,10 7.79,22.656 12.71,45.141 13.77,65.606 0.6,11.393 0.66,23.616 0.12,36.395 -0.13,3.297 -0.31,6.632 -0.52,10 -2.07,32.403 -7.83,67.8 -18.03,101.999 -0.99,3.346 -2.03,6.681 -3.12,10 -12.39,37.977 -30.42,73.937 -55.13,102 -0.67,0.756 -1.34,1.505 -2.02,2.248 -2.4,2.65 -4.83,5.233 -7.27,7.752 -0.21,0.223 -0.43,0.444 -0.64,0.665 -3.3,3.38 -6.64,6.641 -10.01,9.789 -31.78,29.71 -66.47,49.239 -101.99,61.495 -3.33,1.147 -6.67,2.231 -10,3.253 -34.02,10.418 -68.63,14.464 -102.003,14.661 -0.867,0.006 -1.733,0.008 -2.599,0.008 -2.455,0 -4.923,-0.02 -7.401,-0.062 -32.885,-0.559 -67.691,-4.913 -102,-15.428 -3.339,-1.023 -6.672,-2.105 -10,-3.247 -35.72,-12.262 -70.641,-31.498 -101.999,-60.405 -3.376,-3.112 -6.711,-6.336 -10.001,-9.676 -0.344,-0.349 -0.688,-0.7 -1.031,-1.053 -2.457,-2.519 -4.888,-5.102 -7.292,-7.752 -0.675,-0.743 -1.344,-1.492 -2.01,-2.248 -24.712,-28.062 -42.745,-64.022 -55.135,-102 -1.084,-3.318 -2.123,-6.653 -3.12,-10 -10.194,-34.198 -15.957,-69.596 -18.029,-101.999 -0.215,-3.368 -0.391,-6.703 -0.527,-10 z m 20.924,0 c 0.124,3.349 0.322,6.683 0.591,10 2.974,36.63 14.688,71.16 33.324,101.999 2.041,3.379 4.167,6.713 6.372,10 7.696,11.473 16.375,22.38 25.933,32.635 3.235,3.469 6.569,6.863 10.001,10.179 25.29,24.437 55.842,44.624 90.086,59.186 8.713,3.705 17.664,7.046 26.829,10 30.34,9.779 63.015,15.319 97.084,15.795 1.597,0.022 3.196,0.034 4.798,0.034 1.738,0 3.472,-0.013 5.202,-0.04 33.923,-0.514 66.463,-6.048 96.683,-15.789 9.16,-2.954 18.11,-6.295 26.82,-10 34.43,-14.639 65.13,-34.965 90.49,-59.577 3.44,-3.33 6.78,-6.737 10.01,-10.221 9.4,-10.128 17.94,-20.891 25.53,-32.202 2.21,-3.287 4.32,-6.621 6.36,-10 18.64,-30.839 30.35,-65.369 33.34,-101.999 0.26,-3.317 0.46,-6.651 0.58,-10 0.11,-2.838 0.16,-5.685 0.16,-8.545 0,-32.95 -7.06,-64.468 -19.93,-93.456 -1.49,-3.368 -3.07,-6.702 -4.72,-10 -10.72,-21.436 -24.68,-41.356 -41.32,-59.289 -3.23,-3.483 -6.57,-6.891 -10.01,-10.221 -12.24,-11.881 -25.73,-22.764 -40.28,-32.49 -5.2,-3.484 -10.56,-6.819 -16.03,-10 -14.4,-8.357 -29.68,-15.64 -45.68,-21.716 -3.3,-1.253 -6.64,-2.456 -10,-3.605 -31.71,-10.837 -66.08,-17.011 -102.003,-17.555 -1.73,-0.026 -3.464,-0.039 -5.202,-0.039 -1.602,0 -3.201,0.011 -4.798,0.033 -35.917,0.503 -70.284,6.632 -102,17.424 -3.363,1.144 -6.698,2.341 -10,3.589 -16.156,6.107 -31.569,13.442 -46.082,21.869 -5.477,3.181 -10.825,6.517 -16.037,10 -14.39,9.619 -27.741,20.37 -39.88,32.1 -3.432,3.315 -6.766,6.709 -10.001,10.178 -16.821,18.045 -30.915,38.114 -41.727,59.722 -1.65,3.298 -3.224,6.632 -4.72,10 -12.87,28.988 -19.932,60.506 -19.932,93.456 0,2.86 0.053,5.707 0.159,8.545 z"
   style="fill:#1d2813;stroke:#000000;stroke-width:1.2988px;stroke-opacity:0"
   id="path2" />
        <path
   d="m 676.961,560.129 c 1.146,-3.332 2.354,-6.667 3.621,-10 h 27.892 c -1.651,3.298 -3.224,6.632 -4.72,10 z m 63.286,-112 c 2.965,-3.461 5.976,-6.799 9.024,-10 h 0.931 v -0.972 c 3.294,-3.42 6.63,-6.679 10,-9.759 v 10.731 h 55.917 c -5.476,3.18 -10.824,6.516 -16.037,10 h -39.88 v 32.099 c -3.432,3.316 -6.766,6.71 -10,10.179 v -42.278 z m 121.955,-75.866 c 3.369,-1.091 6.705,-2.115 10,-3.076 v 43.483 c -3.364,1.145 -6.697,2.342 -10,3.59 z m 112,-17.465 c 3.123,0.073 4.798,0.191 4.798,0.191 0,0 1.82,-0.128 5.202,-0.2 v 40.464 c -1.73,-0.026 -3.464,-0.039 -5.202,-0.039 -1.602,0 -3.202,0.011 -4.798,0.033 z m 111.998,14.507 c 3.3,0.965 6.63,1.993 10,3.088 v 44.02 c -3.3,-1.254 -6.64,-2.456 -10,-3.605 z m 112,58.463 c 3.37,3.096 6.71,6.372 10,9.808 v 0.553 h 0.53 c 3.05,3.201 6.06,6.539 9.02,10 h -9.55 v 42.711 c -3.23,-3.483 -6.57,-6.892 -10,-10.222 v -32.489 h -40.28 c -5.22,-3.484 -10.56,-6.82 -16.04,-10 h 56.32 z m 79.22,122.361 c 1.26,3.333 2.47,6.668 3.62,10 h -26.8 c -1.49,-3.368 -3.06,-6.702 -4.71,-10 z m 17.52,112 c -0.13,3.298 -0.31,6.633 -0.53,10 h -20.98 c 0.27,-3.317 0.46,-6.65 0.59,-10 z m -18.55,112 c -1,3.346 -2.04,6.681 -3.12,10 h -39.54 c 2.21,-3.288 4.33,-6.622 6.37,-10 z m -58.26,112 c -0.66,0.755 -1.33,1.504 -2.01,2.248 -2.4,2.65 -4.83,5.233 -7.27,7.752 h -0.65 v 0.665 c -3.3,3.379 -6.63,6.641 -10,9.788 v -10.453 h -102 v 71.948 c -3.33,1.148 -6.66,2.232 -10,3.254 v -75.202 h -5.32 c 9.17,-2.954 18.12,-6.295 26.83,-10 h 90.49 v -59.577 c 3.43,-3.33 6.77,-6.738 10,-10.222 v 69.799 z m -233.928,99.863 c -0.867,0.005 -1.733,0.008 -2.599,0.008 -2.455,0 -4.923,-0.021 -7.401,-0.063 v -74.013 c 1.596,0.022 3.196,0.033 4.798,0.033 1.738,0 3.472,-0.013 5.202,-0.039 z m -112,-15.483 c -3.339,-1.023 -6.673,-2.104 -10,-3.246 v -71.134 h -102 v 10.728 c -3.376,-3.112 -6.71,-6.336 -10,-9.675 v -1.053 h -1.032 c -2.456,-2.519 -4.888,-5.102 -7.292,-7.752 -0.674,-0.744 -1.344,-1.493 -2.009,-2.248 h 10.333 v -69.365 c 3.234,3.469 6.568,6.863 10,10.179 v 59.186 h 90.086 c 8.713,3.705 17.665,7.046 26.83,10 h -4.916 z M 684.733,784.129 c -1.083,-3.319 -2.123,-6.654 -3.12,-10 h 36.283 c 2.042,3.378 4.167,6.712 6.372,10 z m -21.149,-112 c -0.215,-3.367 -0.39,-6.702 -0.527,-10 h 20.924 c 0.124,3.35 0.322,6.683 0.591,10 z"
   style="fill:#1b2512"
   id="path3" />
        <path
   id="Shell-Curve"
   serif:id="Shell Curve"
   d="M 978.947,954.279 C 957.69,954.272 930.234,950.4 907,944.432 c -23.253,-5.973 -50.063,-16.885 -70.518,-26.991 -18.563,-9.171 -37.91,-21.107 -52.212,-33.645 -13.532,-11.863 -26.452,-24.25 -36.601,-37.585 -9.87,-12.967 -24.892,-40.002 -24.296,-42.425 0.551,-2.244 19.523,25.001 30.897,35.981 11.387,10.993 24.034,20.938 37.426,29.977 14.523,9.803 32.228,21.018 49.717,28.841 19.674,8.801 45.39,18.385 68.321,23.963 22.628,5.504 49.47,9.501 69.221,9.507 H 979 c 19.751,-0.006 46.59,-4.003 69.22,-9.507 22.93,-5.578 48.65,-15.162 68.32,-23.963 17.49,-7.823 35.2,-19.038 49.72,-28.841 13.39,-9.039 26.04,-18.984 37.42,-29.977 11.38,-10.98 30.35,-38.225 30.9,-35.981 0.6,2.423 -14.42,29.458 -24.29,42.425 -10.15,13.335 -23.07,25.722 -36.61,37.585 -14.3,12.538 -33.64,24.474 -52.21,33.645 -20.45,10.106 -47.26,21.018 -70.52,26.991 -23.23,5.968 -50.69,9.84 -71.941,9.847 z"
   style="fill:#637438;stroke:#1b2512;stroke-width:12.93px;stroke-opacity:0" />
        <path
   d="m 978.992,22.68 c 9.82,-0.1252 26.718,5.2683 56.728,48.0487 9.24,13.1783 13.48,21.3168 36.34,55.2963 27.38,40.691 40.43,68.058 37.86,106.975 -2.69,41.037 -24.25,63.994 -46.09,72.586 -14.49,5.703 -31.45,2.537 -45.4,-0.075 -10.49,-1.967 -26.287,-4.344 -39.438,-4.344 -13.143,0 -28.936,2.377 -39.436,4.344 -13.94,2.612 -30.902,5.778 -45.396,0.075 -21.836,-8.592 -43.39,-31.549 -46.092,-72.586 -2.564,-38.917 10.487,-66.284 37.865,-106.975 22.86,-33.9796 27.089,-42.118 36.336,-55.2963 30.017,-42.7804 46.903,-48.1739 56.723,-48.0487 z"
   style="fill:#637438;stroke:#000000;stroke-width:1.29784px;stroke-opacity:0"
   id="path4" />
        <path
   d="m 839.639,1050 c 1.526,-15.97 -33.491,-34.64 -50.601,-51.084 -17.167,-16.5 -39.601,-49.669 -52.399,-47.916 -24.333,3.333 -44.491,76.85 -43,119 0.883,24.97 1.968,68.91 10.968,100.91 9,32 34.027,73.58 46.032,86.09 5.504,5.74 14.833,14 20,13 5.167,-1 6.992,-7.71 8,-14 11.833,-73.83 17.179,-94.87 28,-129 10.668,-33.65 30.5,-50.83 33,-77 z"
   style="fill:#637438;stroke:#000000;stroke-width:1.29px;stroke-opacity:0"
   id="path5" />
        <path
   d="m 1127.18,1050 c -1.53,-15.97 33.49,-34.64 50.6,-51.084 17.17,-16.5 39.6,-49.669 52.4,-47.916 24.33,3.333 44.49,76.85 43,119 -0.88,24.97 -1.97,68.91 -10.97,100.91 -9,32 -34.03,73.58 -46.03,86.09 -5.5,5.74 -14.83,14 -20,13 -5.17,-1 -6.99,-7.71 -8,-14 -11.83,-73.83 -17.18,-94.87 -28,-129 -10.67,-33.65 -30.5,-50.83 -33,-77 z"
   style="fill:#637438;stroke:#000000;stroke-width:1.29px;stroke-opacity:0"
   id="path6" />
        <path
   d="m 641.746,479.989 c 13.833,-25.167 38.801,-57.986 42.56,-75.989 1.872,-8.968 -1.982,-18.909 -16.449,-22.019 -20.876,-4.488 -77.138,-6.562 -105.551,-1.981 -47.574,7.67 -114.049,36.837 -163.442,70.018 -54.333,36.5 -145.286,115.903 -160.558,162.982 -5.518,17.009 48.358,8.761 70,3 46.333,-12.333 131.073,-42 183.073,-53 42.944,-9.084 84.26,6.833 109.927,-8 19.567,-11.308 26.757,-50.118 40.44,-75.011 z"
   style="fill:#637438;stroke:#000000;stroke-width:1.29px;stroke-opacity:0"
   id="path7" />
        <path
   d="m 1316.25,479.989 c -13.83,-25.167 -38.8,-57.986 -42.56,-75.989 -1.87,-8.968 1.98,-18.909 16.45,-22.019 20.88,-4.488 77.14,-6.562 105.55,-1.981 47.57,7.67 114.05,36.837 163.44,70.018 54.34,36.5 145.29,115.903 160.56,162.982 5.52,17.009 -48.36,8.761 -70,3 -46.33,-12.333 -131.07,-42 -183.07,-53 -42.95,-9.084 -84.26,6.833 -109.93,-8 -19.57,-11.308 -26.76,-50.118 -40.44,-75.011 z"
   style="fill:#637438;stroke:#000000;stroke-width:1.29px;stroke-opacity:0"
   id="path8" />
        <path
   d="m 579.158,399 c 7.005,-3.621 28.481,3.435 28.481,3.435 0,0 20.44,7.616 22.59,12.998 2.259,5.658 -9.403,28.349 -9.403,28.349 0,0 -9.81,14.97 -16.439,18.396 -6.107,3.157 -26.427,-0.516 -26.427,-0.516 0,0 -19.288,-6.753 -21.701,-12.795 -2.304,-5.77 6.706,-26.279 6.706,-26.279 0,0 9.717,-20.241 16.193,-23.588 z m -62.52,71.068 c -4.542,4.235 -25.058,2.395 -25.058,2.395 0,0 -17.873,0.515 -20.58,-2.984 -2.845,-3.68 2.897,-22.424 2.897,-22.424 0,0 -1.304,-22.059 2.993,-26.067 3.96,-3.694 26.327,-3.517 26.327,-3.517 0,0 22.486,-3.159 25.524,0.769 2.902,3.752 -4.949,27.494 -4.949,27.494 0,0 -2.956,20.418 -7.154,24.334 z m -108.521,40.468 c -5.227,-3.355 -4.283,-16.868 -4.283,-16.868 0,0 -1.265,-13.678 1.457,-17.165 2.862,-3.666 12.796,-7.246 12.796,-7.246 0,0 26.043,-4.83 30.988,-1.656 4.557,2.925 7.201,21.975 7.201,21.975 0,0 3.215,20.837 0.159,24.751 -2.919,3.739 -25.021,-1.264 -25.021,-1.264 0,0 -18.466,0.574 -23.297,-2.527 z"
   style="fill:#a2ac63;stroke:#000000;stroke-width:12.93px;stroke-opacity:0"
   id="path9" /><path
   d="m 1259.82,1134.52 c 0.51,5.7 -7.97,17.83 -7.97,17.83 0,0 -8.57,11.27 -12.03,11.95 -3.63,0.71 -12.16,-8.69 -12.16,-8.69 0,0 -7.97,-7.76 -8.45,-13.15 -0.43,-4.97 6.65,-21.34 6.65,-21.34 0,0 6.29,-14.72 10.17,-15.48 3.71,-0.73 14.24,12.17 14.24,12.17 0,0 9.09,11.45 9.55,16.71 z m -34.03,-56.26 c -1.37,-4.01 6.09,-19.65 6.09,-19.65 0,0 3.58,-10.1 6.11,-11.49 2.66,-1.46 11.85,2.81 11.85,2.81 0,0 11.56,5.7 12.86,9.49 1.2,3.49 -2.74,16.75 -2.74,16.75 0,0 -4.1,11.9 -6.94,13.46 -2.72,1.5 -13.23,-3.14 -13.23,-3.14 0,0 -12.72,-4.53 -14,-8.23 z m 0.95,-87.714 c 2.99,-3.251 12.31,-1.331 12.31,-1.331 0,0 9.88,0.338 11.24,2.896 1.42,2.69 -2.74,20.519 -2.74,20.519 0,0 -2.94,11.76 -5.78,14.84 -2.61,2.83 -13.78,1.61 -13.78,1.61 0,0 -7.29,-3.1 -8.81,-5.97 -1.45,-2.75 1.11,-16.02 1.11,-16.02 0,0 3.68,-13.538 6.45,-16.544 z"
   style="fill:#a2ac63;stroke:#000000;stroke-width:12.9684px;stroke-opacity:0"
   id="path10" /><path
   d="m 1376.23,395.721 c 7.57,2.2 15.42,20.767 15.42,20.767 0,0 6.7,18.259 4.55,23.641 -2.25,5.659 -21.41,13.241 -21.41,13.241 0,0 -16.62,7.611 -23.79,5.529 -6.6,-1.918 -20.54,-21.156 -20.54,-21.156 0,0 -19.87,-21.903 -17.46,-27.945 2.31,-5.771 33.67,-11.365 33.67,-11.365 0,0 22.56,-4.747 29.56,-2.712 z m 74.72,89.862 c -6.21,-0.058 -17.81,-23.523 -17.81,-23.523 0,0 -13.31,-11.939 -12.86,-16.341 0.47,-4.627 17.54,-14.26 17.54,-14.26 0,0 13.25,-7.889 19.13,-7.835 5.41,0.051 20.54,9.999 20.54,9.999 0,0 12.65,9.277 12.14,14.218 -0.48,4.719 -14.76,15.616 -14.76,15.616 0,0 -18.17,22.179 -23.92,22.126 z m 46.46,6.827 c -1.48,-6.032 8.51,-15.176 8.51,-15.176 0,0 8.51,-10.788 12.88,-11.44 4.6,-0.686 18.27,9.56 18.27,9.56 0,0 22.21,8.438 23.61,14.147 1.28,5.259 -17.47,20.273 -17.47,20.273 0,0 -10.14,8.076 -15.05,8.808 -4.69,0.7 -15.6,-8.291 -15.6,-8.291 0,0 -13.78,-12.304 -15.15,-17.881 z"
   style="fill:#a2ac63;stroke:#000000;stroke-width:12.15px;stroke-opacity:0"
   id="path11" /><path
   d="m 713.268,1020.01 c -0.373,-5.88 9.197,-17.65 9.197,-17.65 0,0 9.64,-10.903 13.418,-11.335 3.971,-0.455 12.953,9.805 12.953,9.805 0,0 8.426,8.55 8.778,14.1 0.326,5.12 -8.271,18.24 -8.271,18.24 0,0 -8.881,11.05 -13.122,11.53 -4.05,0.47 -13.587,-9.72 -13.587,-9.72 0,0 -9.021,-9.54 -9.366,-14.97 z m 25.904,50.13 c 1.374,4.21 -5.337,18.23 -5.337,18.23 0,0 -4.278,13.14 -7.071,14.38 -2.935,1.3 -12.698,-6.84 -12.698,-6.84 0,0 -9.83,-5.17 -11.13,-9.15 -1.198,-3.67 3.451,-18.34 3.451,-18.34 0,0 2.801,-11.77 5.936,-13.16 2.994,-1.32 12.898,4.5 12.898,4.5 0,0 12.681,6.5 13.951,10.38 z m -7.931,90.13 c -3.352,3.1 -11.21,-0.43 -11.21,-0.43 0,0 -8.525,-1.97 -9.916,-4.69 -1.464,-2.86 1.699,-15.65 1.699,-15.65 0,0 0.119,-17.91 3.292,-20.85 2.922,-2.71 16.357,4.69 16.357,4.69 0,0 7.237,4.01 8.8,7.06 1.492,2.92 -1.529,13.41 -1.529,13.41 0,0 -4.394,13.59 -7.493,16.46 z"
   style="fill:#a2ac63;stroke:#000000;stroke-width:13.2196px;stroke-opacity:0"
   id="path12" /><path
   d="m 928.497,241.508 c 3.367,2.718 1.837,14.608 1.837,14.608 0,0 -2.043,11.495 -4.849,14.069 -2.95,2.707 -15.517,3.157 -15.517,3.157 0,0 -11.226,0.963 -14.412,-1.61 -2.935,-2.37 -4.844,-15.636 -4.844,-15.636 0,0 -6.388,-16.669 -3.238,-19.56 3.009,-2.76 20.827,0.68 20.827,0.68 0,0 17.084,1.779 20.196,4.292 z m -53.962,-19.873 c -3.3,-1.256 -5.802,-12.554 -5.802,-12.554 0,0 -3.432,-9.275 -1.836,-11.638 1.677,-2.485 13.765,-4.486 13.765,-4.486 0,0 12.815,-6.601 15.937,-5.413 2.877,1.096 6.687,12.922 6.687,12.922 0,0 5.803,10.995 4.012,13.648 -1.711,2.535 -17.123,4.765 -17.123,4.765 0,0 -12.59,3.918 -15.64,2.756 z m 29.428,-48.927 c -3.758,-2.489 -4.228,-15.061 -4.228,-15.061 0,0 0.1,-12.214 2.43,-15.194 2.45,-3.132 14.723,-4.907 14.723,-4.907 0,0 10.869,-2.171 14.426,0.183 3.277,2.17 7.003,16.07 7.003,16.07 0,0 6.473,16.429 3.857,19.773 -2.498,3.195 -21.16,1.914 -21.16,1.914 0,0 -13.576,-0.478 -17.051,-2.778 z m 56.135,19.373 c 3.45,0.969 4.985,17.113 4.985,17.113 0,0 4.911,9.328 3.735,11.961 -1.236,2.769 -12.78,6.114 -12.78,6.114 0,0 -9.046,2.85 -12.311,1.933 -3.008,-0.844 -9.35,-9.223 -9.35,-9.223 0,0 -5.1,-7.594 -3.781,-10.55 1.261,-2.824 11.518,-7.364 11.518,-7.364 0,0 14.794,-10.879 17.984,-9.984 z"
   style="fill:#a2ac63;stroke:#000000;stroke-width:12.93px;stroke-opacity:0"
   id="path13" />
        <path
   id="Turtle-Head-Curve"
   serif:id="Turtle Head Curve"
   d="m 1007,78 c 2.17,-0.5 60.1,84.167 67,133 4.61,32.621 -22.83,69.5 -25,70 -2.17,0.5 17.7,-29.831 12,-67 -9.17,-59.833 -56.17,-135.5 -54,-136 z"
   style="fill:#1b2512;stroke:#000000;stroke-width:12.93px;stroke-opacity:0" />
        <path
   d="m 764.514,1242.49 c -2.185,0.14 -2.758,-49.2 0.371,-72.73 3.056,-23 10.793,-51.34 18.405,-68.47 6.05,-13.6 25.556,-36.18 27.265,-34.3 1.7,1.87 -12.1,30.15 -17.023,45.54 -5.418,16.99 -11.303,37.46 -15.527,56.37 -4.837,21.66 -11.305,73.45 -13.491,73.59 z"
   style="fill:#1b2512;stroke:#000000;stroke-width:12.3447px;stroke-opacity:0"
   id="path14" />
        <path
   d="m 1198.38,1242.49 c 2.19,0.14 2.76,-49.2 -0.37,-72.73 -3.05,-23 -10.79,-51.34 -18.4,-68.47 -6.05,-13.6 -25.56,-36.18 -27.27,-34.3 -1.7,1.87 12.1,30.15 17.02,45.54 5.42,16.99 11.31,37.46 15.53,56.37 4.84,21.66 11.31,73.45 13.49,73.59 z"
   style="fill:#1b2512;stroke:#000000;stroke-width:12.3447px;stroke-opacity:0"
   id="path15" />
        <path
   d="m 310.949,595.723 c -0.416,-1.183 47.198,-19.757 69.155,-28.585 20.894,-8.406 41.035,-17.715 62.586,-24.382 21.905,-6.784 45.604,-14.723 68.828,-15.284 23.223,-0.572 70.315,9.759 70.514,11.886 0.199,2.138 -46.578,-2.461 -69.309,-0.095 -22.692,2.366 -45.396,8.465 -67.083,14.29 -21.493,5.783 -41.816,14.045 -63.038,20.69 -22.449,7.028 -71.237,22.665 -71.653,21.481 z"
   style="fill:#1b2512;stroke:#000000;stroke-width:12.9603px;stroke-opacity:0"
   id="path16" />
        <path
   d="m 1646.07,595.723 c 0.42,-1.183 -47.2,-19.757 -69.15,-28.585 -20.9,-8.406 -41.04,-17.715 -62.59,-24.382 -21.9,-6.784 -45.6,-14.723 -68.83,-15.284 -23.22,-0.572 -70.31,9.759 -70.51,11.886 -0.2,2.138 46.58,-2.461 69.31,-0.095 22.69,2.366 45.4,8.465 67.08,14.29 21.49,5.783 41.82,14.045 63.04,20.69 22.45,7.028 71.24,22.665 71.65,21.481 z"
   style="fill:#1b2512;stroke:#000000;stroke-width:12.9603px;stroke-opacity:0"
   id="path17" />
    </g>
</svg>
