<?xml version="1.0" encoding="UTF-8" standalone="no"?>
<!DOCTYPE svg PUBLIC "-//W3C//DTD SVG 1.1//EN" "http://www.w3.org/Graphics/SVG/1.1/DTD/svg11.dtd">
<svg width="100%" height="100%" viewBox="0 0 1080 1080" version="1.1" xmlns="http://www.w3.org/2000/svg" xmlns:xlink="http://www.w3.org/1999/xlink" xml:space="preserve" xmlns:serif="http://www.serif.com/" style="fill-rule:evenodd;clip-rule:evenodd;stroke-linecap:round;stroke-linejoin:round;stroke-miterlimit:1.5;">
    <g id="Turtle-2" serif:id="Turtle 2" transform="matrix(0.720411,0,0,0.823038,-165.283,8.0039)">
        <g id="Turtle-Body" serif:id="Turtle Body" transform="matrix(1.17517,0,0,1,-171.49,0)">
            <path d="M979,340C979,340 1071.34,332.478 1157.93,398.653C1211.06,439.255 1260.49,544.743 1264,622.363C1267.68,703.633 1248.65,825.377 1192.98,896.274C1156.15,943.184 1066.57,1002.71 1030.91,1037C1012.63,1054.57 986.942,1080 979,1080C971.058,1080 946.556,1055.71 927.093,1037C891.429,1002.71 801.554,942.813 765.017,896.274C709.354,825.377 690.324,703.633 694,622.363C697.511,544.743 746.944,439.255 800.071,398.653C886.659,332.478 979,340 979,340Z" style="fill:rgb(99,116,56);stroke:black;stroke-opacity:0;stroke-width:1.2px;"/>
        </g>
        <g id="Turtle-Shell-" serif:id="Turtle Shell " transform="matrix(1.10813,0,0,0.958857,-105.864,28.9781)">
            <path d="M979,340C979,340 1071.34,332.478 1157.93,398.653C1211.06,439.255 1260.49,544.743 1264,622.363C1267.68,703.633 1248.65,825.377 1192.98,896.274C1130.48,975.881 1052.68,998.086 981.349,998.086C910.021,998.086 827.517,975.881 765.017,896.274C709.354,825.377 690.324,703.633 694,622.363C697.511,544.743 746.944,439.255 800.071,398.653C886.659,332.478 979,340 979,340Z" style="fill:rgb(29,40,19);stroke:black;stroke-opacity:0;stroke-width:1.26px;"/>
        </g>
        <g id="Turtle-Shell-Grid" serif:id="Turtle Shell Grid" transform="matrix(1,0,0,1,0.201641,-9.7419)">
            <path d="M740.045,457.871C743.01,454.41 746.021,451.072 749.069,447.871L750,447.871L750,446.899C753.294,443.479 756.63,440.22 760,437.14L760,447.871L862,447.871L862,382.005C865.369,380.914 868.705,379.89 872,378.929L872,447.871L974,447.871L974,364.54C977.123,364.613 978.798,364.731 978.798,364.731C978.798,364.731 980.618,364.603 984,364.531L984,447.871L1086,447.871L1086,379.047C1089.3,380.012 1092.63,381.04 1096,382.135L1096,447.871L1198,447.871L1198,437.51C1201.37,440.606 1204.71,443.882 1208,447.318L1208,447.871L1208.53,447.871C1211.58,451.072 1214.59,454.41 1217.55,457.871L1208,457.871L1208,559.871L1277.22,559.871C1278.48,563.204 1279.69,566.539 1280.84,569.871L1208,569.871L1208,671.871L1294.74,671.871C1294.61,675.169 1294.43,678.504 1294.21,681.871L1208,681.871L1208,783.871L1276.19,783.871C1275.19,787.217 1274.15,790.552 1273.07,793.871L1208,793.871L1208,895.871L1217.93,895.871C1217.27,896.626 1216.6,897.375 1215.92,898.119C1213.52,900.769 1211.09,903.352 1208.65,905.871L1208,905.871L1208,906.536C1204.7,909.915 1201.37,913.177 1198,916.324L1198,905.871L1096,905.871L1096,977.819C1092.67,978.967 1089.34,980.051 1086,981.073L1086,905.871L984,905.871L984,995.734C983.133,995.739 982.267,995.742 981.401,995.742C978.946,995.742 976.478,995.721 974,995.679L974,905.871L872,905.871L872,980.251C868.661,979.228 865.327,978.147 862,977.005L862,905.871L760,905.871L760,916.599C756.624,913.487 753.29,910.263 750,906.924L750,905.871L748.968,905.871C746.512,903.352 744.08,900.769 741.676,898.119C741.002,897.375 740.332,896.626 739.667,895.871L750,895.871L750,793.871L684.531,793.871C683.448,790.552 682.408,787.217 681.411,783.871L750,783.871L750,681.871L663.382,681.871C663.167,678.504 662.992,675.169 662.855,671.871L750,671.871L750,569.871L676.759,569.871C677.905,566.539 679.113,563.204 680.38,559.871L750,559.871L750,457.871L740.045,457.871ZM1198,569.871L1096,569.871L1096,671.871L1198,671.871L1198,569.871ZM984,457.871L984,559.871L1086,559.871L1086,457.871L984,457.871ZM760,895.871L862,895.871L862,793.871L760,793.871L760,895.871ZM872,457.871L872,559.871L974,559.871L974,457.871L872,457.871ZM760,559.871L862,559.871L862,457.871L760,457.871L760,559.871ZM872,671.871L974,671.871L974,569.871L872,569.871L872,671.871ZM1198,681.871L1096,681.871L1096,783.871L1198,783.871L1198,681.871ZM872,783.871L974,783.871L974,681.871L872,681.871L872,783.871ZM1086,895.871L1086,793.871L984,793.871L984,895.871L1086,895.871ZM1086,569.871L984,569.871L984,671.871L1086,671.871L1086,569.871ZM1086,783.871L1086,681.871L984,681.871L984,783.871L1086,783.871ZM1198,457.871L1096,457.871L1096,559.871L1198,559.871L1198,457.871ZM1198,895.871L1198,793.871L1096,793.871L1096,895.871L1198,895.871ZM760,671.871L862,671.871L862,569.871L760,569.871L760,671.871ZM760,783.871L862,783.871L862,681.871L760,681.871L760,783.871ZM974,895.871L974,793.871L872,793.871L872,895.871L974,895.871Z" style="fill:rgb(27,37,18);"/>
        </g>
        <path id="Shell-Curve" serif:id="Shell Curve" d="M978.947,954.279C957.69,954.272 930.234,950.4 907,944.432C883.747,938.459 856.937,927.547 836.482,917.441C817.919,908.27 798.572,896.334 784.27,883.796C770.738,871.933 757.818,859.546 747.669,846.211C737.799,833.244 722.777,806.209 723.373,803.786C723.924,801.542 742.896,828.787 754.27,839.767C765.657,850.76 778.304,860.705 791.696,869.744C806.219,879.547 823.924,890.762 841.413,898.585C861.087,907.386 886.803,916.97 909.734,922.548C932.362,928.052 959.204,932.049 978.955,932.055L979,932.055C998.751,932.049 1025.59,928.052 1048.22,922.548C1071.15,916.97 1096.87,907.386 1116.54,898.585C1134.03,890.762 1151.74,879.547 1166.26,869.744C1179.65,860.705 1192.3,850.76 1203.68,839.767C1215.06,828.787 1234.03,801.542 1234.58,803.786C1235.18,806.209 1220.16,833.244 1210.29,846.211C1200.14,859.546 1187.22,871.933 1173.68,883.796C1159.38,896.334 1140.04,908.27 1121.47,917.441C1101.02,927.547 1074.21,938.459 1050.95,944.432C1027.72,950.4 1000.26,954.272 979.009,954.279C979.006,954.279 978.95,954.279 978.947,954.279Z" style="fill:rgb(99,116,56);stroke:rgb(27,37,18);stroke-opacity:0;stroke-width:12.93px;"/>
        <g id="Turtle-Head" serif:id="Turtle Head" transform="matrix(1.14853,0,0,1.14853,-171.203,-42.4187)">
            <path d="M1001.45,56.68C1010,56.571 1024.71,61.267 1050.84,98.515C1058.89,109.989 1062.58,117.075 1082.48,146.66C1106.32,182.089 1117.68,205.917 1115.45,239.801C1113.1,275.531 1094.33,295.519 1075.32,303C1062.7,307.966 1047.93,305.209 1035.79,302.935C1026.65,301.222 1012.9,299.153 1001.45,299.153C990.006,299.153 976.256,301.222 967.114,302.935C954.976,305.209 940.208,307.966 927.588,303C908.576,295.519 889.81,275.531 887.457,239.801C885.225,205.917 896.588,182.089 920.425,146.66C940.329,117.075 944.011,109.989 952.062,98.515C978.197,61.267 992.9,56.571 1001.45,56.68Z" style="fill:rgb(99,116,56);stroke:black;stroke-opacity:0;stroke-width:1.13px;"/>
        </g>
        <g id="Turtle-Leg-Left" serif:id="Turtle Leg Left" transform="matrix(1,0,0,1,-12.3614,13)">
            <path d="M852,1037C853.526,1021.03 818.509,1002.36 801.399,985.916C784.232,969.416 761.798,936.247 749,938C724.667,941.333 704.509,1014.85 706,1057C706.883,1081.97 707.968,1125.91 716.968,1157.91C725.968,1189.91 750.995,1231.49 763,1244C768.504,1249.74 777.833,1258 783,1257C788.167,1256 789.992,1249.29 791,1243C802.833,1169.17 808.179,1148.13 819,1114C829.668,1080.35 849.5,1063.17 852,1037Z" style="fill:rgb(99,116,56);stroke:black;stroke-opacity:0;stroke-width:1.29px;"/>
        </g>
        <g id="Turtle-Leg-Left1" serif:id="Turtle Leg Left" transform="matrix(-1,0,0,1,1979.18,13)">
            <path d="M852,1037C853.526,1021.03 818.509,1002.36 801.399,985.916C784.232,969.416 761.798,936.247 749,938C724.667,941.333 704.509,1014.85 706,1057C706.883,1081.97 707.968,1125.91 716.968,1157.91C725.968,1189.91 750.995,1231.49 763,1244C768.504,1249.74 777.833,1258 783,1257C788.167,1256 789.992,1249.29 791,1243C802.833,1169.17 808.179,1148.13 819,1114C829.668,1080.35 849.5,1063.17 852,1037Z" style="fill:rgb(99,116,56);stroke:black;stroke-opacity:0;stroke-width:1.29px;"/>
        </g>
        <g id="Turtle-Arm-Left" serif:id="Turtle Arm Left" transform="matrix(1,0,0,1,-52.694,-5.68434e-14)">
            <path d="M694.44,479.989C708.273,454.822 733.241,422.003 737,404C738.872,395.032 735.018,385.091 720.551,381.981C699.675,377.493 643.413,375.419 615,380C567.426,387.67 500.951,416.837 451.558,450.018C397.225,486.518 306.272,565.921 291,613C285.482,630.009 339.358,621.761 361,616C407.333,603.667 492.073,574 544.073,563C587.017,553.916 628.333,569.833 654,555C673.567,543.692 680.757,504.882 694.44,479.989Z" style="fill:rgb(99,116,56);stroke:black;stroke-opacity:0;stroke-width:1.29px;"/>
        </g>
        <g id="Turtle-Arm-Left1" serif:id="Turtle Arm Left" transform="matrix(-1,0,0,1,2010.69,-5.68434e-14)">
            <path d="M694.44,479.989C708.273,454.822 733.241,422.003 737,404C738.872,395.032 735.018,385.091 720.551,381.981C699.675,377.493 643.413,375.419 615,380C567.426,387.67 500.951,416.837 451.558,450.018C397.225,486.518 306.272,565.921 291,613C285.482,630.009 339.358,621.761 361,616C407.333,603.667 492.073,574 544.073,563C587.017,553.916 628.333,569.833 654,555C673.567,543.692 680.757,504.882 694.44,479.989Z" style="fill:rgb(99,116,56);stroke:black;stroke-opacity:0;stroke-width:1.29px;"/>
        </g>
        <g id="Turtle-Spots" serif:id="Turtle Spots">
            <path d="M579.158,399C586.163,395.379 607.639,402.435 607.639,402.435C607.639,402.435 628.079,410.051 630.229,415.433C632.488,421.091 620.826,443.782 620.826,443.782C620.826,443.782 611.016,458.752 604.387,462.178C598.28,465.335 577.96,461.662 577.96,461.662C577.96,461.662 558.672,454.909 556.259,448.867C553.955,443.097 562.965,422.588 562.965,422.588C562.965,422.588 572.682,402.347 579.158,399ZM516.638,470.068C512.096,474.303 491.58,472.463 491.58,472.463C491.58,472.463 473.707,472.978 471,469.479C468.155,465.799 473.897,447.055 473.897,447.055C473.897,447.055 472.593,424.996 476.89,420.988C480.85,417.294 503.217,417.471 503.217,417.471C503.217,417.471 525.703,414.312 528.741,418.24C531.643,421.992 523.792,445.734 523.792,445.734C523.792,445.734 520.836,466.152 516.638,470.068ZM408.117,510.536C402.89,507.181 403.834,493.668 403.834,493.668C403.834,493.668 402.569,479.99 405.291,476.503C408.153,472.837 418.087,469.257 418.087,469.257C418.087,469.257 444.13,464.427 449.075,467.601C453.632,470.526 456.276,489.576 456.276,489.576C456.276,489.576 459.491,510.413 456.435,514.327C453.516,518.066 431.414,513.063 431.414,513.063C431.414,513.063 412.948,513.637 408.117,510.536Z" style="fill:rgb(162,172,99);stroke:black;stroke-opacity:0;stroke-width:12.93px;"/>
            <g transform="matrix(-0.21619,0.728197,-0.556459,-0.165203,1588.06,776.699)">
                <path d="M574.563,366.641C581.568,363.02 600.044,371.075 600.044,371.075C600.044,371.075 617.485,379.692 619.634,385.074C621.893,390.732 613.231,409.423 613.231,409.423C613.231,409.423 606.421,426.392 599.793,429.819C593.685,432.975 570.365,429.302 570.365,429.302C570.365,429.302 549.435,426.137 547.023,420.095C544.718,414.324 557.043,390.616 557.043,390.616C557.043,390.616 568.087,369.988 574.563,366.641ZM516.302,450.43C511.76,454.666 489.234,450.013 489.234,450.013C489.234,450.013 475.146,449.057 472.44,445.557C469.594,441.878 471.55,424.605 471.55,424.605C471.55,424.605 474.407,402.726 478.704,398.718C482.664,395.025 500.87,395.02 500.87,395.02C500.87,395.02 517.421,395.964 520.459,399.893C523.361,403.645 521.445,423.284 521.445,423.284C521.445,423.284 520.501,446.514 516.302,450.43ZM405.257,491.879C400.031,488.524 398.964,472.199 398.964,472.199C398.964,472.199 395.687,455.708 398.409,452.221C401.271,448.555 425.324,446.677 425.324,446.677C425.324,446.677 441.27,445.77 446.216,448.944C450.773,451.869 453.416,470.919 453.416,470.919C453.416,470.919 452.234,484.479 449.178,488.393C446.259,492.132 428.555,494.406 428.555,494.406C428.555,494.406 410.089,494.98 405.257,491.879Z" style="fill:rgb(162,172,99);stroke:black;stroke-opacity:0;stroke-width:19.53px;"/>
            </g>
            <g transform="matrix(0.724921,0.688832,-0.688832,0.724921,1381.23,-226.465)">
                <path d="M424.957,454.48C431.962,450.859 450.438,458.915 450.438,458.915C450.438,458.915 467.878,467.531 470.027,472.913C472.287,478.571 463.625,497.262 463.625,497.262C463.625,497.262 456.815,514.232 450.186,517.658C444.079,520.815 420.723,516.471 420.723,516.471C420.723,516.471 391.23,514.281 388.817,508.239C386.513,502.468 405.396,476.808 405.396,476.808C405.396,476.808 418.481,457.827 424.957,454.48ZM541.026,468.15C536.484,472.386 511.908,463.369 511.908,463.369C511.908,463.369 494.034,463.884 491.328,460.384C488.482,456.705 494.224,437.961 494.224,437.961C494.224,437.961 498.394,423.115 502.692,419.106C506.652,415.413 524.472,412.204 524.472,412.204C524.472,412.204 540.03,410.217 543.068,414.146C545.97,417.898 543.119,435.64 543.119,435.64C543.119,435.64 545.224,464.234 541.026,468.15ZM579.405,441.1C574.178,437.745 575.123,424.233 575.123,424.233C575.123,424.233 573.857,410.555 576.58,407.068C579.442,403.402 596.408,401.415 596.408,401.415C596.408,401.415 618.318,392.236 623.264,395.411C627.821,398.336 624.564,422.141 624.564,422.141C624.564,422.141 622.78,434.977 619.724,438.891C616.805,442.63 602.703,443.628 602.703,443.628C602.703,443.628 584.237,444.202 579.405,441.1Z" style="fill:rgb(162,172,99);stroke:black;stroke-opacity:0;stroke-width:12.15px;"/>
            </g>
            <g transform="matrix(0.256596,-0.729297,0.59946,0.210914,334.474,1355.23)">
                <path d="M571.634,387.207C578.639,383.586 597.115,391.642 597.115,391.642C597.115,391.642 614.555,400.258 616.704,405.64C618.964,411.298 610.302,429.989 610.302,429.989C610.302,429.989 603.492,446.959 596.863,450.385C590.756,453.542 571.06,447.631 571.06,447.631C571.06,447.631 553.768,440.218 551.356,434.177C549.051,428.406 557.383,408.931 557.383,408.931C557.383,408.931 565.158,390.554 571.634,387.207ZM521.58,451.845C517.038,456.081 497.049,453.441 497.049,453.441C497.049,453.441 479.175,453.956 476.469,450.456C473.623,446.777 479.365,428.033 479.365,428.033C479.365,428.033 481.457,410.74 485.754,406.732C489.714,403.039 509.613,402.276 509.613,402.276C509.613,402.276 525.171,400.289 528.209,404.218C531.111,407.97 528.26,425.712 528.26,425.712C528.26,425.712 525.779,447.929 521.58,451.845ZM408.207,487.143C402.981,483.788 403.925,470.275 403.925,470.275C403.925,470.275 402.659,456.597 405.382,453.11C408.244,449.444 425.21,447.458 425.21,447.458C425.21,447.458 447.12,438.278 452.066,441.453C456.623,444.378 453.366,468.183 453.366,468.183C453.366,468.183 451.582,481.02 448.526,484.934C445.607,488.673 431.505,489.67 431.505,489.67C431.505,489.67 413.039,490.244 408.207,487.143Z" style="fill:rgb(162,172,99);stroke:black;stroke-opacity:0;stroke-width:18.86px;"/>
            </g>
            <path d="M928.497,241.508C931.864,244.226 930.334,256.116 930.334,256.116C930.334,256.116 928.291,267.611 925.485,270.185C922.535,272.892 909.968,273.342 909.968,273.342C909.968,273.342 898.742,274.305 895.556,271.732C892.621,269.362 890.712,256.096 890.712,256.096C890.712,256.096 884.324,239.427 887.474,236.536C890.483,233.776 908.301,237.216 908.301,237.216C908.301,237.216 925.385,238.995 928.497,241.508ZM874.535,221.635C871.235,220.379 868.733,209.081 868.733,209.081C868.733,209.081 865.301,199.806 866.897,197.443C868.574,194.958 880.662,192.957 880.662,192.957C880.662,192.957 893.477,186.356 896.599,187.544C899.476,188.64 903.286,200.466 903.286,200.466C903.286,200.466 909.089,211.461 907.298,214.114C905.587,216.649 890.175,218.879 890.175,218.879C890.175,218.879 877.585,222.797 874.535,221.635ZM903.963,172.708C900.205,170.219 899.735,157.647 899.735,157.647C899.735,157.647 899.835,145.433 902.165,142.453C904.615,139.321 916.888,137.546 916.888,137.546C916.888,137.546 927.757,135.375 931.314,137.729C934.591,139.899 938.317,153.799 938.317,153.799C938.317,153.799 944.79,170.228 942.174,173.572C939.676,176.767 921.014,175.486 921.014,175.486C921.014,175.486 907.438,175.008 903.963,172.708ZM960.098,192.081C963.548,193.05 965.083,209.194 965.083,209.194C965.083,209.194 969.994,218.522 968.818,221.155C967.582,223.924 956.038,227.269 956.038,227.269C956.038,227.269 946.992,230.119 943.727,229.202C940.719,228.358 934.377,219.979 934.377,219.979C934.377,219.979 929.277,212.385 930.596,209.429C931.857,206.605 942.114,202.065 942.114,202.065C942.114,202.065 956.908,191.186 960.098,192.081Z" style="fill:rgb(162,172,99);stroke:black;stroke-opacity:0;stroke-width:12.93px;"/>
        </g>
        <path id="Turtle-Head-Curve" serif:id="Turtle Head Curve" d="M1007,78C1009.17,77.5 1067.1,162.167 1074,211C1078.61,243.621 1051.17,280.5 1049,281C1046.83,281.5 1066.7,251.169 1061,214C1051.83,154.167 1004.83,78.5 1007,78Z" style="fill:rgb(27,37,18);stroke:black;stroke-opacity:0;stroke-width:12.93px;"/>
        <g id="Turtle-Leg-Curve-Left" serif:id="Turtle Leg Curve Left" transform="matrix(-0.826367,-0.274549,0.397963,-1.04801,1565.69,1654.77)">
            <path d="M1029.13,123.789C1031.42,123.052 1052.17,164.7 1058.41,185.52C1064.51,205.865 1067.76,232.056 1066.57,248.711C1065.62,261.943 1053.87,286.559 1051.27,285.453C1048.68,284.347 1051.97,256.501 1050.98,242.076C1049.87,226.156 1047.84,207.153 1044.66,189.937C1041.02,170.223 1026.84,124.525 1029.13,123.789Z" style="fill:rgb(27,37,18);stroke:black;stroke-opacity:0;stroke-width:12.5px;"/>
        </g>
        <g id="Turtle-Leg-Curve-Left1" serif:id="Turtle Leg Curve Left" transform="matrix(0.826367,-0.274549,-0.397963,-1.04801,397.206,1654.77)">
            <path d="M1029.13,123.789C1031.42,123.052 1052.17,164.7 1058.41,185.52C1064.51,205.865 1067.76,232.056 1066.57,248.711C1065.62,261.943 1053.87,286.559 1051.27,285.453C1048.68,284.347 1051.97,256.501 1050.98,242.076C1049.87,226.156 1047.84,207.153 1044.66,189.937C1041.02,170.223 1026.84,124.525 1029.13,123.789Z" style="fill:rgb(27,37,18);stroke:black;stroke-opacity:0;stroke-width:12.5px;"/>
        </g>
        <g id="Turtle-Arm-Curve-Left-" serif:id="Turtle Arm Curve Left " transform="matrix(0.00602707,-1.07908,1.116,0.00623326,323.312,1639.03)">
            <path d="M966.754,-16.299C967.849,-16.678 985.307,25.893 993.602,45.523C1001.5,64.202 1010.23,82.203 1016.52,101.48C1022.92,121.073 1030.4,142.269 1031.04,163.075C1031.69,183.881 1022.36,226.128 1020.39,226.317C1018.41,226.506 1022.43,184.57 1020.12,164.214C1017.81,143.893 1012.04,123.58 1006.53,104.177C1001.06,84.948 993.298,66.779 987.031,47.797C980.402,27.717 965.659,-15.92 966.754,-16.299Z" style="fill:rgb(27,37,18);stroke:black;stroke-opacity:0;stroke-width:11.81px;"/>
        </g>
        <g id="Turtle-Arm-Curve-Right" serif:id="Turtle Arm Curve Right" transform="matrix(-0.00602707,-1.07908,-1.116,0.00623326,1633.71,1639.03)">
            <path d="M966.754,-16.299C967.849,-16.678 985.307,25.893 993.602,45.523C1001.5,64.202 1010.23,82.203 1016.52,101.48C1022.92,121.073 1030.4,142.269 1031.04,163.075C1031.69,183.881 1022.36,226.128 1020.39,226.317C1018.41,226.506 1022.43,184.57 1020.12,164.214C1017.81,143.893 1012.04,123.58 1006.53,104.177C1001.06,84.948 993.298,66.779 987.031,47.797C980.402,27.717 965.659,-15.92 966.754,-16.299Z" style="fill:rgb(27,37,18);stroke:black;stroke-opacity:0;stroke-width:11.81px;"/>
        </g>
    </g>
    <g id="grid" transform="matrix(1.25153,0,0,1.25153,245.89,330.994)">
        <circle cx="235" cy="167" r="163" style="fill:none;stroke:rgb(0,158,220);stroke-width:4px;stroke-linecap:butt;stroke-linejoin:miter;stroke-miterlimit:4;"/>
        <circle cx="235" cy="167" r="129" style="fill:none;stroke:rgb(0,158,220);stroke-width:4px;stroke-linecap:butt;stroke-linejoin:miter;stroke-miterlimit:4;"/>
        <circle cx="235" cy="167" r="98" style="fill:none;stroke:rgb(0,158,220);stroke-width:4px;stroke-linecap:butt;stroke-linejoin:miter;stroke-miterlimit:4;"/>
        <circle cx="235" cy="167" r="64" style="fill:none;stroke:rgb(0,158,220);stroke-width:4px;stroke-linecap:butt;stroke-linejoin:miter;stroke-miterlimit:4;"/>
        <circle cx="235" cy="167" r="33" style="fill:none;stroke:rgb(0,158,220);stroke-width:4px;stroke-linecap:butt;stroke-linejoin:miter;stroke-miterlimit:4;"/>
        <path d="M235,4L235,134M235,200L235,330M120,52L212,144M258,190L350,282M72,167L202,167M268,167L398,167M120,282L212,190M258,144L350,52" style="fill:none;fill-rule:nonzero;stroke:rgb(0,158,220);stroke-width:4px;stroke-linecap:butt;stroke-linejoin:miter;stroke-miterlimit:4;"/>
    </g>
    <g id="map" transform="matrix(0.125153,0,0,0.125153,509.963,506.209)">
        <path d="M161,672C165,664 173,632 183,642C193,652 199,642 199,642C199,642 204,647 201,657C199,667 196,677 190,679C184,680 179,684 171,685C165,686 161,672 161,672ZM243,659C245,657 248,667 253,665C258,664 260,674 255,674C250,674 250,680 250,683C250,686 250,692 246,696C242,700 239,697 234,695C229,692 227,692 220,692C214,692 219,702 219,702C219,702 193,701 198,697C203,693 208,692 204,689C200,686 204,684 204,679C204,674 216,676 213,673C209,669 213,655 219,663L223,654C219,650 222,649 214,646C207,643 213,628 213,628L214,618C216,605 241,604 243,615C244,626 243,634 243,634L250,637C250,637 249,645 243,645C237,645 243,649 239,653L243,659ZM1164,51C1157,58 1142,61 1142,61L1137,80L1129,87C1129,87 1131,92 1129,104C1127,116 1112,123 1112,123L1105,131C1105,131 1065,133 1060,131C1045,124 1055,104 1065,106C1075,108 1063,77 1063,77L1076,75C1076,75 1078,45 1083,45C1088,45 1081,35 1075,30C1068,25 1060,8 1053,10C1046,12 1020,10 1020,10L1015,20L997,23C997,23 999,36 995,40C985,52 947,77 963,35L968,25L968,10L938,8C938,8 923,3 923,-4C923,-11 921,-19 921,-19L886,-58L844,-63L841,-71L816,-74C786,-89 759,-76 764,-50C769,-25 777,-15 761,-15C744,-15 741,-28 741,-28C741,-28 728,-33 728,-26C728,-19 723,-6 728,1C733,8 721,18 716,13C711,8 698,-7 701,-12C704,-17 678,-49 704,-54C731,-59 702,-74 712,-78L725,-85L738,-85L746,-92L724,-95L711,-97L686,-99C661,-82 656,-62 656,-62C643,-37 611,-72 623,-86C635,-100 586,-88 578,-81C570,-74 545,-78 545,-78C540,-63 517,-80 523,-90C530,-100 530,-107 530,-107L522,-109L512,-90C489,-90 482,-77 487,-68C492,-60 480,-70 477,-58C474,-46 479,-46 489,-41C499,-36 484,-36 491,-28C498,-20 518,-28 506,-16C494,-4 471,-9 471,-9C469,6 438,3 434,-2C431,-7 406,-37 406,-37L374,-39C371,-63 389,-51 396,-69C403,-88 406,-118 406,-118C406,-118 379,-120 378,-111C376,-103 360,-97 360,-97C360,-97 347,-92 352,-85C357,-78 342,-75 342,-75C342,-75 345,-64 340,-60C327,-46 293,-58 288,-63L268,-71L248,-84L225,-74L218,-67L193,-67L191,-47L236,-42L239,0L221,-6L209,-6L204,-16L194,-18L194,19L204,27L212,35L229,37L232,57L274,59L279,67L304,69L352,118L349,133L341,138C344,150 319,143 319,143L319,153L331,155L343,162L360,133C378,121 387,138 388,148C390,158 380,156 380,156L380,180L390,183C407,203 383,215 383,215L378,232C373,247 355,244 355,244L348,254L328,259L367,264C371,250 381,247 386,254C391,261 391,273 391,273L401,275L399,294L409,297L409,351L421,364C441,356 441,369 431,376C421,383 428,413 428,413L420,421L420,435L410,442L410,461C393,453 373,456 368,461C353,451 321,454 321,463C331,476 309,480 309,480L297,493C305,510 289,512 289,512L289,544L269,563L271,607C271,619 296,620 301,614C306,607 326,628 326,628L341,628L344,598L334,593L334,544L351,525C371,518 364,569 364,574C366,593 374,591 382,587C399,580 385,606 372,604C359,602 367,621 367,621L375,624L360,636L347,651L330,646L310,644L303,632L291,630L289,654L281,664L261,684C288,684 258,703 251,703C266,708 249,723 211,711L211,723L198,725L210,738L223,740L218,769C218,791 163,776 158,771L156,801L146,803L148,823L146,852L164,849L164,861L209,863L274,794L312,786C315,769 332,789 332,789C349,787 352,799 352,799L374,802C392,807 381,809 382,816C384,826 392,823 392,823L395,801L405,803L395,791L377,783L357,775C344,756 360,760 374,762L396,762C396,762 421,796 421,804C421,812 433,814 433,814L448,812L453,824L468,824L473,834L503,834L505,819L477,814L475,797L455,792C448,763 460,755 468,768L478,770L475,745L487,742L484,707L474,704L474,692L516,694C513,672 518,662 518,662L530,662L532,670L583,675L619,634C617,631 623,629 619,625C614,620 607,625 599,620C591,615 599,586 597,580C595,573 625,563 620,578C615,593 620,600 620,600C642,580 660,602 658,607C656,612 670,617 678,612C686,607 696,627 693,637C690,647 660,645 658,635C656,625 651,628 648,633C645,638 630,641 621,636C619,635 619,634 618,633L582,674L584,674C604,686 594,701 587,704C580,707 569,707 569,707L566,714L523,717L520,734C498,731 490,754 495,766C500,778 495,788 495,788L513,796L536,789C539,772 554,769 568,759C581,749 603,778 596,791C589,804 589,810 589,810L591,825L574,832L561,839L559,847L514,847L506,855L484,857L477,867L462,869C462,869 437,881 447,894C457,908 405,906 394,887C391,904 372,889 372,889L354,884L352,859C349,842 317,842 319,854C321,866 259,859 259,859L239,869L221,880L219,888L189,891L176,898L171,888L158,888L145,907C110,909 77,929 80,937C83,945 67,954 67,954L52,959L42,974L22,981L19,1016L9,1023L9,1038L-3,1041L-3,1049L-20,1051L-10,1076L3,1083C26,1086 16,1115 16,1115L29,1117L36,1136L49,1163C54,1183 69,1178 76,1177C83,1175 89,1197 89,1197L155,1199C155,1199 152,1206 163,1209C175,1212 251,1216 254,1211C251,1196 296,1192 314,1206C332,1219 357,1211 357,1211L382,1241L399,1278L427,1286L447,1291L454,1320L469,1322L474,1341C492,1354 469,1383 469,1383L469,1420L482,1427L480,1441L502,1463L527,1465L590,1532L640,1547L648,1574L661,1572L671,1564L711,1562L731,1543L753,1540L938,1383L921,1373L921,1336C951,1314 953,1275 924,1272C903,1269 912,1247 932,1243L944,1238L944,1223L982,1188L982,1161L899,1092C862,1079 899,998 924,999C949,1001 922,874 922,874L909,867L912,826L894,826L864,865L856,892C853,927 750,921 745,916C740,911 705,896 705,896C705,896 678,874 673,881C668,888 645,873 645,878C645,883 623,866 623,866L590,854L615,849L610,829L653,851C658,858 680,856 680,856L687,864C687,864 700,862 709,872C717,882 761,874 761,874L773,884L791,891L843,893L845,861L855,851L853,831L865,821L865,804L875,801L877,764L885,762L885,681L860,657C858,665 832,665 832,665C832,665 825,677 820,677C815,677 827,692 823,702C820,712 806,712 806,712L781,719L774,727L747,727L744,705L774,697L791,689L799,672C801,655 821,657 821,657C821,657 859,625 861,610C863,595 876,553 899,553L942,553C959,546 954,524 954,524L976,521L979,533C979,533 1009,536 1012,531C1015,526 1022,514 1030,519C1038,524 1065,507 1065,507C1067,495 1108,500 1108,500L1113,485C1113,485 1085,446 1080,446C1075,446 1048,422 1045,431C1018,424 1020,387 1020,387L1010,363C1010,349 985,321 980,324C955,305 973,284 980,282C987,280 1003,257 1003,257L1011,233L1039,225L1042,203L1027,201C1027,201 1044,171 1052,171C1060,171 1115,171 1120,168C1125,165 1135,138 1135,133C1135,128 1148,126 1153,125C1158,123 1170,110 1173,103C1182,86 1171,44 1164,51ZM1625,590C1624,587 1623,584 1620,583C1613,580 1600,585 1594,589L1600,597C1606,593 1615,591 1616,592L1616,591L1625,590ZM1668,791L1658,790C1657,798 1659,808 1667,809L1669,799C1669,799 1668,795 1668,791ZM1705,751C1708,761 1711,771 1711,772L1720,768C1720,768 1716,758 1714,748L1705,751ZM1727,743L1727,741C1727,738 1726,734 1724,730L1715,735C1716,737 1716,740 1717,742C1717,745 1718,748 1720,750C1722,751 1724,752 1727,751L1725,741C1725,742 1726,742 1727,743ZM1642,815C1649,811 1658,802 1657,821C1656,840 1648,834 1642,840C1636,846 1632,821 1642,815ZM1241,945L1242,930L1258,932L1257,946L1241,945ZM1242,978C1240,969 1230,966 1229,966L1226,976C1227,976 1228,977 1229,978L1231,987C1230,988 1229,989 1229,990L1236,997C1241,989 1243,984 1242,978ZM-1,1290L-11,1299L-16,1303L-11,1307L1,1315L7,1307L0,1302L5,1298L-1,1290ZM117,1411L113,1420L123,1425L120,1429L127,1436L140,1423L134,1419L117,1411ZM-342,-759L-332,-749L-339,-742L-349,-752L-342,-759ZM-40,-444L-30,-436L-36,-428L-46,-436L-40,-444ZM-78,-437L-76,-418L-51,-418C-41,-418 -59,-430 -59,-430C-59,-430 -79,-428 -78,-437ZM470,-907L453,-909L452,-899L466,-898L477,-881L485,-887L474,-905L472,-907L470,-907ZM515,-1261L510,-1252L523,-1244L526,-1242L528,-1244L547,-1256L541,-1264L526,-1254L515,-1261ZM604,-1213L596,-1222L589,-1214L604,-1199L607,-1202L624,-1216L617,-1224L604,-1213ZM52,-862C51,-868 85,-869 90,-864C95,-859 92,-850 107,-850C122,-850 115,-840 114,-835C112,-830 96,-832 94,-837C92,-842 67,-844 67,-844C67,-844 54,-854 52,-862ZM243,-881C269,-873 278,-879 280,-886C282,-893 283,-894 293,-896C303,-898 291,-918 281,-916C271,-914 261,-919 259,-928C257,-936 241,-958 239,-941C237,-924 227,-924 229,-912C232,-901 237,-883 243,-881ZM408,-1166C404,-1181 383,-1147 405,-1141C427,-1134 448,-1141 448,-1141L453,-1151L536,-1149C543,-1156 546,-1166 546,-1166C546,-1166 566,-1173 574,-1169C582,-1166 576,-1193 567,-1189C559,-1186 542,-1187 542,-1187L512,-1187C510,-1199 484,-1194 482,-1187C481,-1181 471,-1179 471,-1179L433,-1176C429,-1166 410,-1159 408,-1166ZM411,-1083L389,-1105L389,-1124L382,-1131L375,-1155L353,-1162L331,-1154L308,-1139L283,-1136L270,-1121L323,-1116L333,-1099L371,-1096L396,-1071C419,-1061 424,-1071 411,-1083ZM488,-921L495,-937L504,-932L497,-917L488,-921ZM985,-938C982,-951 1018,-963 1027,-953C1035,-943 1059,-941 1062,-891C1063,-873 1032,-910 1032,-910L1007,-918C993,-921 986,-929 985,-938ZM810,-894C805,-879 803,-859 795,-859C787,-859 790,-837 790,-837C790,-837 812,-837 818,-835C825,-833 825,-816 825,-816C850,-818 860,-784 857,-775C854,-767 867,-767 867,-767C867,-767 867,-740 864,-733C861,-726 886,-721 892,-711C899,-701 889,-667 884,-665C879,-663 897,-658 896,-650C894,-642 901,-650 903,-636C905,-623 908,-594 908,-594L931,-592C934,-614 977,-615 984,-612C1012,-602 1034,-558 1034,-548C1034,-538 1016,-536 1016,-536L1019,-487C1047,-479 1071,-438 1067,-431C1064,-424 1087,-426 1087,-426C1090,-456 1119,-446 1120,-436C1122,-426 1127,-404 1127,-404L1135,-389L1147,-377L1165,-379L1170,-369L1192,-366C1192,-366 1210,-346 1212,-341C1214,-336 1239,-338 1245,-336C1252,-334 1262,-329 1263,-321C1265,-313 1275,-299 1275,-299C1275,-299 1295,-294 1297,-287C1299,-280 1307,-265 1307,-265L1324,-251L1326,-236L1344,-234L1349,-214L1379,-216L1396,-228C1418,-240 1433,-255 1434,-262C1436,-269 1439,-294 1456,-289C1473,-284 1461,-326 1461,-326C1461,-326 1438,-343 1439,-351C1441,-359 1416,-376 1417,-383C1419,-390 1395,-403 1397,-410C1399,-417 1385,-435 1385,-435L1360,-459L1357,-474L1337,-476L1297,-525L1299,-539L1287,-541L1287,-560L1275,-567L1257,-569L1220,-609L1217,-628L1199,-628L1202,-663C1214,-678 1207,-707 1207,-707C1207,-707 1184,-695 1172,-700C1160,-705 1177,-717 1177,-717L1177,-730L1167,-740C1167,-740 1139,-737 1137,-742C1135,-747 1130,-769 1130,-769L1128,-798L1116,-803L1114,-813L1096,-811L1096,-831L1086,-834L1076,-839L1074,-859L1037,-861L1025,-878L1012,-898L970,-901L960,-911L943,-914L931,-919L926,-911L894,-909L892,-899C878,-892 812,-899 810,-894ZM504,-904C507,-899 527,-894 527,-894C540,-894 549,-884 549,-879C549,-874 567,-876 567,-876L569,-888L556,-905L544,-913C544,-913 526,-915 526,-920C526,-924 507,-909 504,-904ZM504,-847L491,-850L491,-835L509,-833L504,-847ZM689,-661L689,-674C689,-674 687,-687 679,-687C671,-687 656,-697 659,-704C662,-711 631,-718 631,-718C631,-718 603,-745 613,-742C623,-739 618,-754 618,-754C618,-754 598,-751 593,-752C588,-754 590,-769 590,-769C590,-769 570,-774 570,-769C570,-764 577,-764 580,-754C583,-744 582,-727 597,-724C612,-721 615,-717 617,-710C619,-703 637,-702 637,-702L650,-695L689,-661ZM702,-616C700,-623 697,-646 707,-645C717,-643 710,-645 722,-640C734,-635 735,-648 735,-648L753,-648L776,-629L773,-614L756,-612C748,-625 731,-620 734,-609C737,-597 726,-575 719,-574C712,-572 691,-572 692,-582C695,-592 702,-616 702,-616ZM976,-386L988,-423C971,-426 975,-445 975,-445C973,-460 950,-477 942,-472C934,-467 937,-507 937,-507C937,-507 952,-517 959,-512C966,-507 902,-596 889,-588C876,-580 846,-596 847,-612C849,-627 787,-678 787,-678C787,-678 767,-691 764,-681C761,-671 754,-664 764,-659C774,-654 772,-667 784,-656C796,-644 817,-629 809,-619C801,-609 791,-605 791,-605L803,-591L821,-591L824,-562C824,-562 844,-552 849,-540C854,-528 854,-521 849,-515C844,-508 834,-496 836,-485C838,-473 851,-468 851,-468L864,-466L874,-461L874,-439C887,-442 909,-424 907,-412C905,-400 910,-407 927,-395C944,-383 939,-381 950,-373C961,-366 971,-371 976,-386ZM594,-170C594,-165 591,-158 601,-156C611,-154 629,-163 631,-153C633,-143 633,-136 646,-131C659,-126 668,-124 678,-124C688,-124 710,-127 710,-127C710,-127 734,-123 738,-119C756,-100 768,-95 773,-104C778,-112 771,-131 770,-138C768,-145 745,-177 737,-170C729,-163 727,-170 712,-165C697,-160 665,-163 664,-170C662,-177 639,-180 639,-187C639,-194 622,-202 624,-192C626,-182 612,-177 609,-180C604,-184 594,-170 594,-170ZM511,-152L509,-140L527,-138C527,-138 535,-131 535,-126C535,-121 547,-116 553,-116C560,-116 578,-130 578,-130C578,-130 586,-154 580,-152C573,-150 560,-140 558,-150C556,-160 536,-155 536,-155L511,-152ZM425,-133L430,-134L433,-125L428,-123L425,-133ZM431,-149L441,-151L444,-136L435,-134L431,-149ZM459,-147L460,-137L496,-138L496,-148L459,-147ZM783,-155L800,-157L801,-147L784,-145L783,-155ZM827,-118L832,-130L841,-126L836,-114L827,-118ZM972,-287L989,-288L990,-278L973,-277L972,-287ZM1000,-277L1010,-277L1010,-269L1000,-269L1000,-277ZM1030,-419L1020,-418L1018,-433L1028,-434L1030,-419ZM1020,-209L1030,-209L1030,-197L1020,-197L1020,-209ZM1042,-203L1051,-199L1046,-188L1037,-193L1042,-203ZM993,-336C1003,-336 990,-297 1016,-301C1043,-304 1018,-289 1038,-288C1058,-286 1053,-303 1060,-315C1067,-327 1063,-334 1052,-337C1040,-340 1040,-340 1037,-354C1034,-367 1020,-371 1020,-371L1015,-391L993,-378L971,-349C971,-325 983,-336 993,-336ZM1058,-244C1071,-251 1100,-251 1098,-261C1096,-271 1115,-274 1115,-274L1120,-254L1135,-244L1137,-225C1137,-225 1142,-228 1124,-223C1106,-218 1117,-210 1117,-210L1077,-208L1072,-225L1058,-244ZM843,-103C851,-105 871,-106 875,-101C878,-96 863,-89 863,-89L843,-86C837,-94 835,-101 843,-103ZM950,-118C959,-109 900,-111 900,-118C900,-125 905,-148 920,-143C935,-138 937,-173 937,-173C937,-173 924,-171 935,-178C947,-185 935,-195 930,-200C925,-205 920,-214 920,-214L943,-214C953,-221 956,-253 956,-253C976,-246 986,-260 986,-260C986,-260 989,-250 996,-241C1003,-233 979,-229 988,-224C996,-219 1000,-204 996,-199C993,-194 974,-197 974,-204C974,-211 967,-196 974,-187C981,-179 966,-167 962,-167C959,-167 937,-164 955,-153C973,-143 993,-148 993,-148C993,-148 1008,-150 1013,-141C1018,-133 1011,-131 1003,-131C995,-131 955,-134 955,-134C955,-134 945,-123 950,-118ZM1144,-309C1139,-316 1134,-321 1127,-324C1120,-327 1115,-331 1109,-331C1102,-331 1096,-338 1099,-346C1102,-354 1094,-358 1094,-365C1094,-372 1099,-372 1107,-367C1115,-362 1114,-360 1120,-352C1127,-344 1130,-335 1137,-337C1144,-339 1149,-322 1155,-327C1162,-332 1160,-315 1160,-315L1144,-309ZM1128,-293C1133,-286 1143,-281 1143,-274C1143,-267 1140,-262 1150,-261C1160,-259 1167,-263 1170,-254C1173,-246 1173,-232 1172,-225C1170,-218 1174,-208 1182,-208C1190,-208 1192,-206 1192,-201C1192,-196 1202,-220 1202,-220C1194,-227 1187,-242 1187,-242C1187,-242 1179,-266 1179,-269C1179,-272 1167,-276 1162,-277C1157,-279 1149,-294 1149,-294L1128,-293ZM1236,-20L1229,-35C1229,-35 1229,-48 1232,-55C1235,-62 1225,-68 1220,-70C1215,-72 1217,-85 1215,-92C1213,-99 1202,-104 1202,-104C1202,-104 1199,-129 1199,-134C1199,-139 1184,-146 1189,-151C1194,-156 1197,-163 1202,-166C1207,-169 1197,-193 1205,-188C1213,-183 1213,-174 1217,-168C1220,-161 1215,-138 1224,-133C1232,-128 1222,-111 1236,-111C1249,-111 1241,-79 1241,-79C1241,-79 1238,-55 1246,-54C1254,-52 1249,-12 1249,-12L1236,-20ZM1241,109L1246,99L1255,104L1250,114L1241,109ZM1252,54L1262,55L1261,69L1251,67L1252,54ZM1231,-2L1218,-4L1188,1L1171,33C1171,33 1179,38 1186,50C1193,62 1196,131 1176,143C1156,155 1178,148 1178,148L1175,185C1180,202 1188,193 1193,185C1198,177 1203,175 1210,166C1217,158 1227,142 1228,131C1230,119 1238,101 1233,96C1228,91 1238,67 1238,67C1238,67 1245,53 1238,40C1231,26 1240,11 1245,5L1231,-2ZM1158,-174L1133,-174C1133,-174 1141,-171 1118,-193C1095,-215 1080,-188 1080,-188L1053,-185L1053,-158L1040,-153L1042,-136L1060,-138C1060,-138 1060,-118 1065,-126C1070,-134 1112,-124 1108,-104C1107,-96 1150,-74 1145,-47C1167,-44 1162,-22 1162,-22L1190,-19L1198,-36L1206,-34L1206,-44L1188,-49L1185,-103L1173,-111L1176,-125L1163,-130L1170,-152L1158,-174ZM1096,240L1106,236L1102,228L1100,222L1095,225L1083,232L1072,225L1067,234L1080,242L1083,244L1085,242L1095,237L1096,240ZM1140,218L1158,221L1160,211L1142,208L1140,218ZM1106,434C1099,424 1139,407 1146,427C1153,447 1146,444 1139,442C1133,440 1116,447 1106,434ZM934,759L946,759L946,791L934,791L934,759ZM1011,1068C1008,1081 996,1088 989,1083C982,1078 997,1091 1001,1098C1004,1105 1014,1105 1018,1098C1021,1091 1020,1076 1023,1069C1026,1063 1013,1061 1011,1068ZM1048,1136L1063,1143L1065,1172C1085,1192 1150,1175 1150,1170C1150,1165 1147,1108 1147,1108L1139,1100L1137,1058C1144,1036 1105,1004 1102,1011C1099,1018 1077,1013 1077,1019C1077,1026 1064,1059 1070,1071C1077,1083 1065,1083 1063,1095C1061,1105 1044,1125 1048,1136ZM580,775L575,767L561,775L567,784L580,775ZM326,808C318,816 320,823 326,829M378,849L389,830L380,827L368,835L373,840L378,849ZM368,322C375,337 373,359 398,376C406,382 393,393 385,388C377,383 353,346 353,346L353,324C358,311 365,316 368,322ZM280,410C284,425 283,386 290,388C297,390 292,364 292,364L262,386C276,388 278,403 280,410ZM190,518C188,538 163,545 163,545L145,540L135,532L133,508L148,506L151,516L190,518ZM163,314L163,290L160,268L135,256L117,273L114,297L114,312L97,315L94,361L81,366L83,383L47,393L44,415L31,423L24,443L16,492C16,492 31,521 39,507C47,494 61,492 61,492L66,480L111,482C114,463 136,470 136,479C136,487 153,481 153,481L165,462L183,462L185,442L193,437L193,407C220,399 216,373 216,373L223,365L220,353C207,348 213,336 222,339C230,342 210,324 210,324C200,332 192,314 192,314L163,314ZM87,245L74,248L44,277L42,290L34,302L24,327L-11,329L-18,359L-13,385L17,397L20,380L30,375L32,358L39,346L49,334L52,321L69,311L89,307L97,297L100,277L102,262L109,251L129,243L129,211L119,211L117,199L99,197L95,206L87,206L85,219L95,219L97,230L90,236L87,245ZM-441,448C-441,452 -444,455 -448,455C-452,455 -455,452 -455,448C-455,444 -452,441 -448,441C-444,441 -441,444 -441,448ZM-442,641C-442,645 -445,648 -449,648C-453,648 -456,645 -456,641C-456,637 -453,634 -449,634C-445,634 -442,637 -442,641ZM-460,613C-456,613 -453,610 -453,606C-453,602 -456,599 -460,599C-464,599 -467,602 -467,606C-467,610 -464,613 -460,613ZM-480,653L-494,655L-494,667L-480,665L-480,653ZM-465,567L-477,569L-478,582L-465,584L-465,567ZM-468,476L-467,464L-492,481L-508,471L-508,511L-482,547L-472,523L-468,508L-480,503L-478,478L-468,476ZM-478,334L-508,331L-506,343L-498,343C-485,367 -496,424 -496,424C-496,424 -516,426 -519,416C-522,406 -531,438 -524,443C-517,448 -494,443 -492,462C-490,481 -477,450 -477,450L-478,334ZM192,0L174,0L171,-37L181,-44L181,-63L123,-63L121,-82L129,-87L116,-92L106,-79L103,-64L86,-61L86,-53L74,-53L74,-31L27,8L-66,5C-73,20 -89,3 -89,3C-92,-7 -116,3 -116,3C-116,22 -148,-5 -148,-5L-206,-47C-239,-77 -289,-39 -291,-30C-289,-6 -329,-25 -329,-25C-329,-25 -362,-35 -367,-22C-372,-9 -394,-12 -394,-12L-397,-5L-414,-2L-417,8L-437,11L-387,9C-374,7 -392,38 -400,36L-423,38L-431,46L-453,46L-463,60L-495,58C-495,58 -513,73 -512,78C-510,83 -515,98 -520,98C-525,98 -535,113 -532,118C-529,123 -542,140 -542,140L-545,157L-555,160L-555,206L-575,220L-575,240L-605,272L-602,299L-627,326L-624,353L-639,358L-642,370L-649,405L-632,407C-624,404 -625,429 -632,432C-639,435 -657,442 -647,449C-637,456 -674,454 -674,444C-674,434 -694,425 -699,429C-704,432 -712,414 -712,414C-730,395 -787,416 -787,416L-795,443C-813,446 -825,477 -825,477C-840,482 -852,501 -847,506C-842,511 -855,513 -855,513L-855,550L-863,562L-861,602C-851,602 -853,621 -853,621C-870,623 -866,645 -866,645L-901,657L-908,667L-951,665L-963,677L-975,665L-1058,665L-1061,657L-1078,654L-1080,635L-1105,637L-1110,647L-1137,649C-1135,666 -1164,691 -1167,684C-1170,677 -1189,659 -1180,655C-1172,652 -1150,648 -1150,648L-1150,636L-1212,634L-1219,644L-1244,646L-1244,673L-1256,676C-1264,681 -1254,700 -1254,700C-1242,712 -1256,730 -1256,730C-1266,740 -1248,759 -1248,759C-1235,762 -1256,772 -1256,772C-1253,789 -1243,794 -1243,794C-1253,811 -1236,819 -1236,819L-1234,848L-1222,855L-1222,874L-1215,886L-1188,886L-1190,844C-1213,817 -1170,810 -1168,820C-1166,830 -1148,835 -1148,835C-1145,860 -1116,875 -1108,850C-1100,825 -1093,840 -1088,852C-1083,864 -1051,893 -1051,893L-1026,893L-1023,917C-995,915 -986,919 -975,957C-963,996 -932,1006 -932,1006L-909,1004C-909,984 -886,1007 -886,1018C-886,1028 -841,1067 -841,1067L-796,1077L-754,1111L-722,1108L-709,1108C-701,1079 -661,1110 -657,1120C-654,1130 -627,1147 -624,1139C-621,1131 -602,1136 -599,1161C-596,1186 -584,1181 -584,1181L-489,1179L-456,1150L-371,1148C-328,1146 -354,1087 -363,1087C-378,1075 -358,1026 -358,1026L-479,913C-507,913 -482,872 -482,872C-460,858 -487,837 -487,837C-484,817 -499,793 -499,793C-529,773 -521,734 -521,734L-521,707C-546,683 -511,680 -511,680C-499,660 -519,645 -519,645L-521,623L-548,620L-551,541L-611,455C-623,452 -614,431 -614,431C-599,423 -617,402 -617,402L-619,365L-584,362L-576,349L-559,349L-561,305C-553,283 -533,295 -533,295L-510,297L-497,272L-494,252L-512,250C-532,238 -522,194 -522,194C-490,147 -454,174 -454,174L-431,172C-396,196 -428,239 -428,239C-435,249 -431,281 -431,281L-423,335L-445,354C-463,364 -463,388 -443,393C-430,395 -435,427 -455,405C-485,405 -438,432 -452,425C-422,440 -429,412 -429,412L-389,380C-374,368 -347,405 -347,410C-347,415 -281,412 -281,412C-263,424 -256,454 -256,454C-238,430 -199,452 -228,466C-201,483 -201,498 -201,498C-179,491 -179,508 -179,513C-179,518 -172,488 -172,488C-197,469 -139,463 -155,496L-165,511L-148,524L-146,563C-109,560 -119,514 -119,514L-102,511C-102,496 -90,504 -90,504C-102,447 -63,437 -63,437C-41,432 -40,386 -40,386C-55,379 -47,356 -30,376C-13,396 -40,335 -40,335L-53,323L-71,321L-73,302L-103,302L-108,326L-119,331L-122,324L-127,343L-157,343L-159,323L-141,318L-134,308L-129,281L-107,281L-79,273C-77,244 -62,251 -62,251L-37,271L-35,281L-45,286L-47,300L-42,319L-29,319C-24,292 11,292 21,309L31,285C8,273 31,255 37,263C44,271 59,241 59,241C59,241 71,256 59,236C47,216 67,206 67,206C64,186 89,189 89,189L91,162L68,160C63,184 43,163 53,158C63,153 73,143 73,143L73,126L83,123L85,106L110,106L132,96L137,88L160,86L193,56L190,43C170,43 190,28 190,28L192,0ZM-711,1517L-724,1497L-704,1500L-683,1518L-674,1540L-686,1547L-693,1537L-709,1532L-711,1517ZM-1078,1011L-1070,1034L-1058,1043L-1047,1068L-1053,1080L-1072,1063L-1085,1044L-1092,1029L-1103,999L-1078,1011ZM-1178,921L-1186,921L-1186,938L-1173,938L-1173,960L-1163,960L-1165,935L-1178,930L-1178,921ZM130,-107L140,-109L142,-99L132,-97L130,-107ZM142,-113L145,-123L158,-119L156,-109L142,-113ZM166,-123L167,-133L156,-135L154,-125L166,-123ZM183,-145L196,-145L196,-135L183,-135L183,-145ZM268,-133L269,-143L281,-142L279,-132L268,-133ZM301,-126L302,-136L290,-138L289,-128L301,-126ZM313,-125L326,-125L326,-115L313,-115L313,-125ZM328,-108L328,-96L338,-97L338,-109L328,-108Z" style="fill:rgb(0,158,220);fill-rule:nonzero;"/>
    </g>
</svg>
